<?xml version="1.0" encoding="UTF-8" standalone="no"?>
<svg
   width="2950"
   height="2145"
   viewBox="0 0 2950 2145"
   xmlns="http://www.w3.org/2000/svg"
   xmlns:svg="http://www.w3.org/2000/svg">
  <path
     d="m 180.69986,3.65051 c 0.631,1.522 2.362,5.4670003 3.848,8.767 1.486,3.3 3.727,8.907 4.979,12.459 3.437,9.75 8.214,18.232 17.248,30.619 2.613,3.582 4.75,6.793 4.75,7.134 0,0.341 0.665,1.333 1.478,2.204 0.813,0.871 3.605,4.284 6.205,7.584 2.6,3.3 5.198,6.595 5.772,7.322 0.575,0.727 1.795,2.152 2.712,3.166 0.916,1.015 1.44,2.071 1.164,2.348 -0.276,0.276 0.384,0.977 1.468,1.557 1.084,0.58 2.256,2.191 2.605,3.581 0.349,1.389 1.064,2.526 1.589,2.526 0.526,0 1.641,1.326 2.479,2.946 1.406,2.718001 3.004,4.712 8.682,10.835 1.164,1.255 2.273,3.634 2.466,5.287 0.192,1.654 0.841,3.925 1.442,5.048 1.613,3.014 3.639,10.881 3.832,14.884 0.094,1.925 0.639,5.248 1.213,7.384 0.573,2.137 0.714,5.062 0.312,6.5 -0.402,1.439 -0.816,3.638 -0.921,4.886 -0.588,6.985 -8.783,24.697 -15.168,32.781 -1.078,1.365 -3.323,5.162 -5.324,9.003 -0.875,1.679 -2.584,4.449 -3.798,6.154 -1.214,1.705 -2.208,3.544 -2.208,4.086 0,0.542 -1.92,3.623 -4.266,6.846 -2.346,3.223 -5.034,7.063 -5.973,8.533 -3.564,5.582 -37.998,40.827 -39.888,40.827 -0.48,0 -1.661,0.693 -2.623,1.539 -5.924,5.211 -15.703,12.461 -16.806,12.461 -0.716,0 -1.967,0.666 -2.78,1.479 -3.64,3.64 -19.673,10.387 -35.664,15.008 -11.206,3.238 -24.119001,8.035 -31.000001,11.517 -4.125,2.087 -9.975,5.013 -13,6.502 -3.025,1.49 -6.694,3.335 -8.154,4.101 -1.46,0.766 -3.191,1.393 -3.847,1.393 -0.655,0 -5.787,2.25 -11.404,5 -5.617,2.75 -10.748,5 -11.404,5 -0.655,0 -1.191,0.34 -1.191,0.756 0,0.416 -1.238,1.305 -2.75,1.977 -3.318,1.473 -12.578,8.843 -20.123,16.017 -3.037,2.887 -5.883,5.25 -6.325,5.25 -0.4410007,0 -0.8020003,0.42 -0.8020003,0.934 0,0.513 -1.3760002,3.147 -3.0580002,5.852 -7.6149999,12.25 -8.788,36.112 -1.966,40.005 1.646,0.94 3.395,2.834 3.886,4.209 0.49,1.375 2.0640005,3.752 3.4970005,5.282 1.433,1.53 3.086,3.68 3.673,4.778 0.588,1.098 1.483,1.74 1.989,1.427 0.506,-0.313 1.207,0.575 1.558,1.972 0.351,1.398 1.072,2.541 1.602,2.541 1.37,0 21.819,20.491 21.819,21.864 0,0.625 0.41,1.023 0.912,0.886 0.502,-0.138 2.934,1.662 5.405,4 2.472,2.337 5.013,4.25 5.647,4.25 0.635,0 0.89,0.427 0.567,0.95 -0.323,0.522 0.302,1.425 1.389,2.007 1.086,0.582 2.771,2.404 3.743,4.05 0.973,1.646 2.182,2.993 2.688,2.993 0.506,0 1.895,1.012 3.088,2.25 3.011,3.125 7.425,6.841 11.561,9.735 1.925,1.347 4.095,3.026 4.821,3.732 0.727,0.706 1.817,1.283 2.422,1.283 0.605,0 1.838,0.668 2.74,1.485 1.853,1.676 28.970001,15.515 30.402001,15.515 0.51,0 5.245,2.181 10.521,4.847 11.605,5.864 14.562,6.825 23.579,7.671 3.842,0.36 7.278,0.836 7.636,1.057 0.357,0.22 1.938,-0.014 3.514,-0.522 1.576,-0.508 7.435,-1.139 13.021,-1.403 5.585,-0.263 11.025,-0.944 12.088,-1.513 1.063,-0.569 2.908,-0.779 4.1,-0.468 1.192,0.312 2.768,0.068 3.503,-0.542 0.736,-0.61 1.604,-0.843 1.93,-0.516 0.327,0.326 1.623,-0.128 2.881,-1.009 1.258,-0.881 3.163,-1.602 4.235,-1.602 2.32,0 15.293,-5.711 18.029,-7.936 1.057,-0.86 1.639,-1.077 1.294,-0.481 -0.345,0.595 1.581,0.026 4.28,-1.266 2.7,-1.292 5.267,-2.258 5.706,-2.148 0.439,0.111 3.498,-1.173 6.798,-2.854 3.3,-1.68 10.118,-5.109 15.152,-7.62 5.033,-2.511 10.755,-6.169 12.716,-8.13 1.961,-1.961 3.866,-3.565 4.234,-3.565 0.368,0 1.686,-1.012 2.929,-2.25 5.377,-5.353 8.201,-7.75 9.133,-7.75 0.549,0 1.6,-1.125 2.336,-2.5 0.736,-1.375 1.674,-2.5 2.085,-2.5 0.411,0 2.922,-2.063 5.581,-4.584 2.659,-2.521 6.562,-5.702 8.673,-7.069 4.959,-3.209 27.722,-26.433 31.926,-32.571 1.779,-2.599 3.824,-4.736 4.544,-4.75 0.72,-0.014 1.098,-0.368 0.839,-0.787 -0.259,-0.418 0.838,-2.555 2.437,-4.75 1.599,-2.194 3.572,-5.407 4.383,-7.139 0.812,-1.733 2.078,-3.758 2.813,-4.5 0.736,-0.743 2.025,-2.7 2.866,-4.35 0.84,-1.65 2.947,-5.59 4.681,-8.756 3.301,-6.023 9.152,-21.982 9.165,-24.994 0.004,-0.962 0.344,-1.751 0.757,-1.752 0.413,-10e-4 0.837,-1.261 0.944,-2.799 0.107,-1.538 0.463,-4.125 0.791,-5.748 2.827,-13.977 3.693,-20.892 2.658,-21.237 -0.784,-0.261 -0.823,-0.943 -0.128,-2.241 0.549,-1.027 1.661,-5.153 2.472,-9.17 0.81,-4.016 2.408,-11.803 3.55,-17.303 2.032,-9.78 2.063,-11.6 1.399,-82.662 -0.478,-51.316 -0.356,-74.084 0.417,-77.5 0.602,-2.661 1.351,-7.088 1.665,-9.838 0.939,-8.245 1.077,-8.909 2.339,-11.25 0.668,-1.237999 1.006,-2.249999 0.753,-2.249999 -1.605,0 4.033,-11.440001 8.054,-16.341001 10.725,-13.073 17.463,-16.132 41.336,-18.768 20.306,-2.242 30.042,-2.235 36.754,0.026 3.401,1.146 7.885,2.09 9.964,2.098 3.722,0.014 10.253,1.895 15.242,4.39 1.397,0.699 4.565,2.197 7.04,3.329 2.475,1.132 6.555,3.005 9.066,4.162 2.511,1.157 5.098,2.104 5.75,2.104 0.651,0 1.184,0.414 1.184,0.92 0,0.505 2.215,1.655 4.923,2.554 2.708,0.9 5.463,2.286 6.122,3.081 0.66,0.795 2.045,1.445 3.077,1.445 1.033,0 1.878,0.45 1.878,1 0,0.55 0.693,1 1.54,1 1.809,0 8.657,3.37 10.606,5.22 0.745,0.706 3.042,2.174 5.104,3.260001 2.063,1.086 3.75,2.322003 3.75,2.746999 0,0.425 0.337,0.677 0.75,0.561 0.783,-0.222 5.383,2.069 6.25,3.113 0.895,1.078 7.626,6.561 9.944,8.099 1.242,0.825 4.126,3.223 6.407,5.329 2.282,2.106 5.274,4.581 6.649,5.5 3.902,2.609 6.969,5.333 10.887,9.671 10.234,11.331 26.985,26.745 38.113,35.072 6.875,5.144 13.625,10.264 15,11.377 1.375,1.113 3.063,2.03 3.75,2.038 0.688,0.007 1.25,0.406 1.25,0.886 0,1.391 18.56,13.127 20.759,13.127 1.094,0 3.807,-0.641 6.028,-1.425 5.609,-1.979 8.643,0.735 5.939,5.312 -1.526,2.582 2.748,9.113 5.964,9.113 4.316,0 28.618,28.058 31.658,36.551 0.974,2.722 2.23,5.787 2.791,6.812 0.561,1.025 1.196,2.6 1.411,3.5 0.216,0.9 0.89,3.437 1.498,5.637 2.003,7.242 3.083,15.929 2.524,20.306 -0.437,3.426 -0.103,4.91 1.636,7.262 1.969,2.663 2.06,3.301 0.923,6.448 -1.22,3.373 -1.005,5.767 0.897,9.984 0.496,1.1 1.781,4.475 2.857,7.5 4.539,12.77 12.156,32.638 13.174,34.363 0.605,1.025 1.264,2.6 1.464,3.5 0.348,1.56 4.797,13.974 6.141,17.137 0.351,0.825 0.775,1.95 0.943,2.5 0.167,0.55 1.411,4.051 2.763,7.78 2.655,7.325 2.63,7.241 2.63,8.72 0,0.55 1.586,1 3.525,1 2.864,0 3.707,0.481 4.501,2.568 0.537,1.413 1.988,4 3.225,5.75 1.237,1.75 2.395,3.857 2.574,4.682 0.179,0.825 0.741,1.65 1.25,1.833 0.509,0.184 0.925,1.21 0.925,2.282 0,1.071 0.675,2.207 1.5,2.523 0.825,0.317 1.505,1.09 1.511,1.719 0.006,0.629 2.123,3.393 4.704,6.143 2.582,2.75 4.715,5.39 4.74,5.867 0.063,1.215 8.8,8.627 10.173,8.63 0.62,0.002 1.694,0.686 2.387,1.521 1.295,1.561 4.842,3.326 10.985,5.468 1.925,0.671 5.3,2.054 7.5,3.074 2.2,1.019 5.626,2.086 7.614,2.37 1.987,0.284 4.912,1.017 6.5,1.629 4.062,1.567 9.572,1.408 10.83,-0.313 1.499,-2.05 4.312,-2.769 13.255,-3.39 14.277,-0.99 29.038,-0.378 30.399,1.262 0.938,1.13 2.37,0.894 8.902,-1.462 0.825,-0.298 1.95,-0.628 2.5,-0.733 0.55,-0.106 1.225,-0.281 1.5,-0.389 0.275,-0.108 1.625,-0.338 3,-0.511 5.768,-0.725 10.58,-1.863 11.74,-2.776 0.682,-0.537 4.446,-1.586 8.363,-2.333 3.918,-0.746 7.702,-1.837 8.408,-2.423 0.707,-0.587 2.343,-1.265 3.637,-1.508 2.694,-0.505 4.065,-1.101 12.352,-5.366 3.3,-1.698 8.016,-4.023 10.48,-5.165 2.464,-1.143 4.714,-2.387 5,-2.765 0.737,-0.973 3.993,-2.919 7.648,-4.57 1.72,-0.777 3.378,-1.817 3.683,-2.311 0.305,-0.494 3.987,-2.641 8.182,-4.77 4.426,-2.246 9.90194,-6.11 13.04594,-9.204 2.98,-2.932 5.792,-5.332 6.248,-5.332 0.457,0 3.843,-2.925 7.525,-6.5 3.682,-3.575 7.063,-6.5 7.512,-6.5 0.45,0 2.932,-2.025 5.515,-4.5 2.583,-2.475 4.911,-4.5 5.173,-4.5 0.262,0 2.508,-1.913 4.99,-4.25 2.483,-2.337 6.147,-5.6 8.144,-7.25 1.996,-1.65 4.467,-3.787 5.491,-4.75 1.025,-0.962 2.138,-1.75 2.474,-1.75 0.624,0 10.078,-7.501 11.889,-9.433 7.707,-8.223 49.262,-28.278 70.5,-34.024 3.575,-0.967 6.95,-2.098 7.5,-2.513 0.55,-0.416 3.925,-1.07 7.5,-1.454 3.575,-0.385 8.75,-1.009 11.5,-1.388 15.748,-2.167 36.613,2.25 46.182,9.777 1.423,1.119 3.343,2.035 4.266,2.035 2.041,0 6.236,4.335 8.459,8.741 0.899,1.782 2.75,3.971 4.114,4.865 1.363,0.893 2.479,2.192 2.479,2.887 0,0.694 0.649,1.801 1.442,2.459 2.052,1.703 7.196,12.729 8.42,18.048 0.57,2.475 1.586,6.975 2.258,10 1.872,8.422 1.576,43.903 -0.43,51.639 -0.875,3.376 -1.885,8.551 -2.244,11.5 -0.359,2.948 -1.446,7.161 -2.417,9.361 -3.962,8.983 -4.902,11.155 -6.278,14.5 -0.792,1.925 -1.542,3.95 -1.667,4.5 -0.124,0.55 -0.852,1.691 -1.617,2.537 -0.765,0.845 -2.11,3.095 -2.989,5 -2.156,4.673 -3.86,7.601 -5.648,9.706 -0.82,0.966 -2.646,3.783 -4.057,6.258 -1.411,2.476 -3.511,5.356 -4.665,6.402 -2.19,1.981 -5.929,9.441 -8.108,16.173 -1.33,4.111 -5.612,12.077 -7.588,14.117 -1.026,1.059 -8.916,13.832 -12.122,19.622 -0.665,1.202 -2.015,3.247 -3,4.546 -0.984,1.298 -3.02,4.673 -4.523,7.5 -9.301,17.49 -33.754,43.213 -54.767,57.609 -1.925,1.319 -5.3,3.929 -7.5,5.8 -2.2,1.87 -4.9,4.165 -6,5.098 -1.1,0.933 -3.125,2.422 -4.5,3.31 -1.375,0.887 -3.4,2.451 -4.5,3.475 -1.1,1.024 -5.15,4.301 -9,7.282 -3.85,2.981 -7.9,6.258 -9,7.281 -1.1,1.023 -7.175,5.908 -13.5,10.856 -6.325,4.948 -13.693,10.893 -16.373,13.212 -2.68,2.319 -5.605,4.638 -6.5,5.154 -1.318,0.761 -10.729,8.059 -17.286,13.407 -7.717,6.294 -13.005,10.155 -13.908,10.155 -1.549,0 -15.03094,6.831 -17.43294,8.833 -5.351,4.46 -15.989,6.662 -17.181,3.555 -0.293,-0.763 -1.208,-1.388 -2.033,-1.388 -1.057,0 -1.271,0.517 -0.726,1.75 1.909,4.317 0.806,8.717 -3.889,15.51 -2.569,3.718 -4.671,6.999 -4.671,7.292 0,0.293 -0.456,1.076 -1.014,1.74 -4.293,5.114 -13.95,24.686 -12.198,24.723 0.392,0.009 0.25,0.346 -0.316,0.75 -1.66,1.188 -6.977,15.599 -8.039,21.793 -0.278,1.618 -0.904,4.292 -1.392,5.942 -0.489,1.65 -1.129,5.475 -1.424,8.5 -0.295,3.025 -1.203,11.8 -2.017,19.5 -1.321,12.496 -1.461,34.298 -0.233,36.285 0.257,0.415 0.573,3.446 0.702,6.735 0.129,3.289 0.66,6.819 1.179,7.843 0.519,1.025 1.08,3.95 1.248,6.5 0.167,2.551 0.741,5.762 1.276,7.137 0.535,1.375 1.303,4.075 1.705,6 0.916,4.376 3.993,13.715 6.166,18.71 2.514,5.783 6.618,13.73 7.379,14.29 0.373,0.275 1.874,2.3 3.334,4.5 8.286,12.484 23.415,28.61 29.974,31.95 2.106,1.073 4.918,3.323 6.24794,5 5.032,6.346 12.925,14.55 13.997,14.55 0.613,0 1.93,0.9 2.925,2 0.995,1.1 2.398,2 3.116,2 0.718,0 2.224,0.985 3.345,2.189 1.121,1.203 2.039,1.823 2.039,1.377 0,-0.446 0.654,-0.268 1.454,0.396 3.468,2.878 20.167,9.275 30.046,11.51 0.55,0.124 1.675,0.485 2.5,0.801 16.769,6.429 82.006,9.537 81.999,3.906 0,-0.373 2.475,-0.583 5.5,-0.466 3.026,0.117 5.501,-0.207 5.501,-0.719 0,-0.512 0.601,-0.701 1.336,-0.419 0.734,0.282 3.322,-0.151 5.75,-0.961 2.428,-0.811 6.214,-1.79 8.414,-2.176 2.2,-0.385 4.45,-0.966 5,-1.291 0.55,-0.325 1.45,-0.674 2,-0.775 0.55,-0.102 3.025,-0.714 5.5,-1.36 2.475,-0.646 5.743,-1.416 7.262,-1.709 1.519,-0.293 3.009,-0.932 3.309,-1.418 0.301,-0.487 1.32,-0.885 2.266,-0.885 0.945,0 2.826,-0.776 4.181,-1.725 1.355,-0.949 3.367,-1.853 4.473,-2.009 2.702,-0.381 6.597,-1.884 15.297,-5.901 4.009,-1.851 7.912,-3.365 8.673,-3.365 0.762,0 2.692,-1.099 4.288,-2.442 1.597,-1.344 4.033,-2.594 5.415,-2.779 1.382,-0.185 3.598,-1.039 4.924,-1.896 1.327,-0.858 4.662,-2.38 7.412,-3.383 2.75,-1.002 6.594,-3.325 8.542,-5.161 1.948,-1.836 3.947,-3.339 4.442,-3.339 3.345,0 24.242,-15.046 30.548,-21.995 0.843,-0.929 4.225,-3.672 7.517,-6.097 6.82,-5.024 29.451,-27.168 29.451,-28.818 0,-0.599 0.675,-1.09 1.5,-1.09 0.825,0 1.5,-0.467 1.5,-1.039 0,-0.571 1.834,-2.933 4.076,-5.25 2.242,-2.316 5.309,-6.011 6.817,-8.211 1.508,-2.2 6.267,-9.175 10.576,-15.5 10.735,-15.758 12.381,-17.819 15.38,-19.256 1.434,-0.687 3.741,-3.28 5.129,-5.761 1.387,-2.481 4.165,-6.237 6.172,-8.347 2.008,-2.11 4.269,-4.578 5.027,-5.486 0.757,-0.907 2.764,-2.806 4.46,-4.218 2.726,-2.27 13.363,-21.924 13.363,-24.692 0,-0.534 0.872,-2.079 1.938,-3.434 1.066,-1.355 2.246,-3.69 2.622,-5.189 0.376,-1.499 2.16,-4.389 3.964,-6.421 10.005,-11.274 17.814,-23.504 20.507,-32.115 1.857,-5.939 7.299,-18.333 11.672,-26.581 7.224,-13.627 9.106,-18.296 10.683,-26.5 0.265,-1.375 0.994,-4.975 1.621,-8 0.627,-3.025 1.244,-6.049 1.371,-6.721 0.127,-0.672 0.536,-1.526 0.908,-1.899 0.373,-0.372 0.412,-1.735 0.087,-3.028 -0.324,-1.294 -0.154,-2.352 0.378,-2.352 0.964,0 5.249,-11.785 5.249,-14.438 0,-0.767 0.379,-1.545 0.842,-1.729 0.463,-0.183 4.296,-7.282 8.519,-15.775 4.222,-8.494 8.29,-16.144 9.04,-17 0.749,-0.857 1.659,-2.532 2.021,-3.722 0.362,-1.19 3.334,-5.015 6.604,-8.5 3.269,-3.485 5.951,-6.673 5.959,-7.086 0.01,-0.413 0.465,-0.75 1.016,-0.75 0.55,0 8.698,-7.859 18.106,-17.465 9.408,-9.605 17.395,-17.404 17.749,-17.331 0.354,0.073 7.096,-6.215 14.982,-13.973 8.383,-8.247 17.752,-16.378 22.556,-19.574 8.914,-5.932 12.866,-10.492 21.584,-24.907 2.911,-4.812 5.756,-8.75 6.324,-8.75 0.567,0 0.761,-0.27 0.431,-0.6 -1.723,-1.724 13.7,-22.4 16.709,-22.4 0.919,0 2.98,-1.433 4.58,-3.185 1.6,-1.752 5.357,-4.79 8.349,-6.75 2.992,-1.961 10.545,-7.84 16.785,-13.065 14.064,-11.778 22.367,-18.195 26.874,-20.769 1.909,-1.09 6.527,-3.855 10.263,-6.144 7.585,-4.646 17.904,-8.59 24.707,-9.443 2.475,-0.31 8.55,-1.273 13.5,-2.139 11.483,-2.01 10.05,-1.965 17,-0.536 3.3,0.678 8.179,1.617 10.843,2.086 2.663,0.47 5.457,1.364 6.208,1.987 0.751,0.624 3.972,1.302 7.158,1.508 9.419,0.609 26.92,7.328 31.535,12.108 1.509,1.563 4.499,4.642 6.644,6.842 4.216,4.324 12.112,16.944 12.112,19.358 0,0.817 0.63,2.195 1.401,3.063 7.136,8.045 18.639,41.915 20.064,59.079 0.508,6.124 1.337,12.143 3.44,25 0.942,5.759 3.475,14.276 5.127,17.236 0.532,0.955 0.968,2.424 0.968,3.264 0,0.84 0.429,2.309 0.953,3.264 0.524,0.955 1.903,4.661 3.065,8.236 1.162,3.575 2.496,7.4 2.964,8.5 0.468,1.1 1.069,2.9 1.336,4 0.267,1.1 1.879,5.782 3.583,10.404 1.705,4.622 3.099,9.203 3.099,10.179 0,4.366 8.028,14.041 13.849,16.69 3.108,1.415 7.901,4.216 10.651,6.225 6.119,4.471 13.604,7.962 23.5,10.96 13.269,4.02 25.647,10.557 30.855,16.294 2.555,2.814 9.202,9.871 14.772,15.682 11.315,11.806 16.86,18.494 23.272,28.066 2.395,3.575 5.15,7.4 6.121,8.5 0.972,1.1 2.808,4.475 4.08,7.5 1.272,3.025 2.67,5.65 3.106,5.833 0.437,0.184 0.794,1.856 0.794,3.716 0,1.861 0.627,4.861 1.394,6.667 10.429,24.577 5.61,63.359 -8.94,71.943 -1.891,1.116 -5.641,4.665 -8.333,7.887 -5.182,6.202 -14.848,15.079 -19.27,17.698 -1.457,0.862 -3.918,3.574 -5.467,6.026 -1.83,2.895 -4.67,5.503 -8.101,7.439 -2.906,1.64 -5.283,3.538 -5.283,4.217 0,0.68 -1.11,1.83 -2.466,2.556 -1.356,0.726 -2.24,1.684 -1.965,2.13 0.276,0.446 -1.282,1.721 -3.461,2.833 -2.179,1.112 -4.251,2.929 -4.603,4.038 -0.352,1.109 -1.086,2.017 -1.631,2.017 -0.546,0 -0.755,0.383 -0.466,0.851 0.289,0.468 -0.519,2.267 -1.797,3.998 -4.162,5.642 -6.935,20.194 -6.245,32.779 0.73,13.313 1.914,23.475 2.921,25.06 0.415,0.654 1.008,3.003 1.319,5.221 0.31,2.218 2.775,10.882 5.479,19.254 10.655,32.995 2.393,54.77699 -25.914,68.32699 -21.587,10.332 -37.571,10.707 -64.74,1.52 -8.149,-2.755 -16.08,-5.01 -17.624,-5.01 -1.544,0 -2.807,-0.359 -2.807,-0.798 0,-5.163 -35.304,-2.357 -48.503,3.856 -9.161,4.312 -24.497,17.706 -24.497,21.395 0,0.866 -0.411,2.356 -0.914,3.311 -1.662,3.158 -4.929,18.578 -6.089,28.736 -0.628,5.5 -1.587,13.15 -2.131,17 -2.569,18.165 -3.033,23.911 -2.906,36 0.236,22.489 0.034,29.801 -0.856,30.917 -1.898,2.383 -1.902,23.424 -0.01,45.583 1.057,12.375 2.617,30.6 3.466,40.5 0.849,9.9 2.195,21.537 2.991,25.86 0.797,4.324 1.448,10.26 1.448,13.191 0,2.932 0.374,5.562 0.831,5.844 0.782,0.484 2.458,7.057 3.664,14.37 1.263,7.653 3.681,18.154 5.466,23.735 1.056,3.3 3.123,10.907 4.594,16.905 5.341,21.775 8.731,30.764 13.112,34.772 1.008,0.922 3.633,3.535 5.833,5.806 8.359,8.629 30.934,21.932 41,24.161 12.851,2.846 21.685,3.495 30.817,2.266 5.051,-0.681 16.833,-2.205 26.183,-3.388 9.35,-1.184 19.445,-2.573 22.434,-3.087 2.988,-0.514 7.644,-0.935 10.346,-0.935 2.702,0 10.607,-1.074 17.566,-2.386 15.164,-2.859 33.619,-5.638 37.353,-5.624 1.484,0.01 8.009,-1.067 14.5,-2.384 6.491,-1.317 15.851,-2.701 20.801,-3.077 10.554,-0.801 39.355,-4.34 41.437,-5.091 3.143,-1.134 31.064,-4.29 38.943,-4.402 4.699,-0.067 9.531,-0.698 11,-1.437 1.441,-0.725 4.645,-1.621 7.12,-1.992 2.475,-0.371 6.525,-1.068 9,-1.55 7.324,-1.425 17.387,-3.29 19,-3.52 5.993,-0.856 9.908,-2.941 10.197,-5.43 0.294,-2.532 0.509,-2.609 7.46,-2.668 6.088,-0.052 8.068,-0.547 13.25,-3.309 3.351,-1.786 6.093,-2.986 6.093,-2.666 0,0.32 1.037,-0.097 2.303,-0.927 1.267,-0.83 4.891,-2.399 8.052,-3.487 3.161,-1.088 7.821,-3.377 10.356,-5.087 2.534,-1.711 6.925,-3.977 9.758,-5.037 2.834,-1.06 7.824,-3.541 11.091,-5.512 3.267,-1.972 22.59,-11.82 42.94,-21.884 34.337,-16.983 39.291,-19.355 42,-20.111 0.55,-0.154 2.575,-0.829 4.5,-1.501 5.192,-1.812 6.348,-2.168 8,-2.467 0.825,-0.15 2.625,-0.568 4,-0.929 13.01,-3.422 46.738,-4.431 55.18,-1.65 3.476,1.145 9.47,2.797 13.32,3.67 3.85,0.874 9.25,2.676 12,4.005 2.75,1.328 9.05,3.806 14,5.505 9.599,3.296 14.757,5.963 23.413,12.106 2.977,2.113 5.902,3.856 6.5,3.874 4.373,0.128 4.57,2.806 0.379,5.145 -7.661,4.276 -13.362,3.604 -37.292,-4.393 -3.3,-1.103 -6.45,-2.113 -7,-2.244 -1.312,-0.312 -4.015,-1.399 -9.373,-3.769 -2.406,-1.063 -5.298,-2.111 -6.427,-2.329 -1.129,-0.217 -2.514,-0.856 -3.077,-1.419 -2.224,-2.224 -8.537,-1.213 -9.212,1.477 -0.345,1.375 -0.987,2.5 -1.426,2.5 -2.661,0 0.765,3.904 4.347,4.953 4.231,1.239 5.89,1.949 20.218,8.647 7.726,3.612 8.037,3.887 7.715,6.832 -0.335,3.068 -0.335,3.068 1.322,0.818 1.681,-2.283 4.135,-3.227 2.808,-1.08 -0.482,0.78 -0.184,0.963 0.892,0.55 1.416,-0.543 11.693,3.355 21.463,8.142 3.592,1.76 4.086,3.932 1.717,7.549 -0.844,1.287 -1.739,3.404 -1.989,4.705 -0.251,1.301 -1.837,4.957 -3.526,8.125 -1.688,3.167 -2.803,5.759 -2.479,5.759 0.325,0 -0.539,2.025 -1.921,4.5 -1.382,2.475 -2.305,4.5 -2.052,4.5 0.253,0 -0.733,2.137 -2.192,4.75 -1.458,2.612 -2.595,4.853 -2.526,4.98 0.069,0.126 -0.978,2.726 -2.328,5.778 -1.35,3.052 -2.454,5.895 -2.454,6.318 0,0.423 -1.614,3.898 -3.586,7.722 -4.484,8.693 -9.414,20.914 -9.414,23.337 0,1.008 -1.344,4.484 -2.987,7.724 -1.643,3.24 -2.993,6.444 -3,7.119 -0.013,1.262 -3.488,9.135 -7.733,17.522 -1.323,2.613 -2.143,4.75 -1.822,4.75 0.32,0 -0.358,1.844 -1.507,4.097 -3.112,6.1 1.922,10.378 6.177,5.248 0.754,-0.91 2.864,-2.279 4.688,-3.041 2.591,-1.083 3.25,-1.893 3.012,-3.706 -0.445,-3.396 1.802,-5.689 4.552,-4.644 3.152,1.199 5.269,-0.323 8.011,-5.76 2.213,-4.388 3.073,-7.743 4.124,-16.092 0.662,-5.263 2.434,-9.869 4.033,-10.482 0.799,-0.307 1.452,-1.441 1.452,-2.52 0,-1.08 1.6,-3.907 3.556,-6.282 8.277,-10.05 12.679,-18.006 11.453,-20.698 -1.006,-2.207 -0.789,-2.86 1.847,-5.56 6.798,-6.965 8.383,-9.051 12.812,-16.87 2.551,-4.504 5.695,-9.869 6.986,-11.92 3.197,-5.083 2.914,-6.487 -5.333,-26.467 -0.633,-1.533 6.089,-8.303 8.244,-8.303 1.44,0 7.435,5.409 7.435,6.708 0,1.376 15.737,19.127 18.875,21.292 10.207,7.04 13.193,9.624 14.638,12.669 0.869,1.832 1.925,3.331 2.345,3.331 2.21,0 5.574,25.874 3.748,28.828 -0.357,0.579 -0.04,1.621 0.705,2.317 2.169,2.027 0.634,8.45 -5.822,24.355 -3.041,7.493 -4.423,11.183 -5.056,13.5 -0.376,1.375 -2.202,5.112 -4.058,8.304 -1.856,3.192 -3.375,6.237 -3.375,6.768 0,0.53 -1.8,3.927 -4,7.548 -2.2,3.622 -4,6.823 -4,7.115 0,0.292 -0.789,1.258 -1.754,2.148 -0.965,0.889 -3.53,3.867 -5.7,6.617 -5.012,6.351 -7.091,8.432 -12.046,12.054 -2.2,1.608 -4.675,3.609 -5.5,4.446 -4.428,4.493 -9.911,7.83 -29.6,18.013 -6.655,3.441 -14.258,7.884 -16.897,9.872 -2.638,1.988 -5.499,4.065 -6.358,4.615 -0.86,0.55 -3.156,2.6 -5.104,4.556 -3.63,3.644 -5.359,4.647 -20.041,11.629 -4.675,2.223 -13.45,6.438 -19.5,9.366 -6.05,2.929 -11.642,5.438 -12.427,5.575 -0.785,0.137 -3.485,1.347 -6,2.69 -2.515,1.342 -6.878,3.187 -9.694,4.1 -5.37,1.74 -16.168,7.76 -17.879,9.967 -1.75,2.258 -5.484,3.742 -9.553,3.798 -2.171,0.03 -3.947,0.527 -3.947,1.104 0,0.576 -0.271,0.777 -0.603,0.446 -0.331,-0.332 -1.711,-0.182 -3.066,0.333 -3.588,1.364 -16.377,3.934 -19.583,3.935 -1.513,0 -8.32,2.246 -15.126,4.991 -6.807,2.744 -13.444,5.107 -14.749,5.25 -1.463,0.16 -2.819,1.278 -3.535,2.915 -0.638,1.46 -2.101,2.952 -3.25,3.317 -1.871,0.594 -2.229,1.142 -2.029,3.111 0.098,0.962 -9.352,7.354 -10.147,6.863 -0.404,-0.25 -2.011,0.898 -3.57,2.55 -1.56,1.652 -3.291,3.004 -3.848,3.004 -0.557,0 -1.575,0.9 -2.262,2 -0.687,1.1 -1.73,2 -2.317,2 -2.704,0 -19.847,13.735 -29.97,24.012 -6.531,6.629 -9.49,12.271 -11.46,21.842 -0.379,1.845 -1.594,5.398 -2.698,7.895 -1.105,2.498 -3.093,8.638 -4.417,13.646 -1.325,5.008 -2.673,9.78 -2.996,10.605 -0.323,0.825 -0.696,4.2 -0.829,7.5 -0.133,3.3 -1.008,8.152 -1.944,10.782 -1.754,4.929 -2.229,8.405 -8.087,59.218 -3.996,34.659 -6.161,52.337 -7.104,58 -3.798,22.826 0.259,39.217 13.773,55.639 2.099,2.551 3.817,5.069 3.817,5.595 0,0.526 0.9,1.771 2,2.766 1.1,0.995 2,2.24 2,2.766 0,0.809 2.443,4.031 9.657,12.734 14.86,17.928 28.884,31.26 32.132,30.546 3.204,-0.703 5.539,0.788 12.057,7.704 2.462,2.613 5.088,4.75 5.836,4.75 0.749,0 1.873,1.125 2.5,2.5 0.626,1.375 1.511,2.5 1.965,2.5 0.454,0 3.688,2.427 7.185,5.394 3.497,2.967 7.891,6.181 9.763,7.141 1.873,0.961 4.677,2.808 6.232,4.106 1.554,1.297 3.354,2.363 4,2.367 0.645,0.01 3.615,2.296 6.599,5.092 2.985,2.796 6.388,5.449 7.563,5.896 1.307,0.497 2.595,2.339 3.315,4.743 0.752,2.512 2.064,4.336 3.633,5.05 1.351,0.616 4.222,2.715 6.381,4.665 2.158,1.95 4.409,3.546 5.002,3.546 0.592,0 2.338,1.177 3.878,2.617 1.541,1.439 5.502,4.456 8.802,6.705 3.3,2.25 8.25,5.795 11,7.88 2.75,2.084 5.364,3.791 5.809,3.794 0.444,0 2.469,1.29 4.5,2.863 2.03,1.572 6.391,3.899 9.691,5.17 7.182,2.768 10.738,5.121 15.203,10.064 4.245,4.699 10.002,7.573 12.297,6.139 1.905,-1.19 10.645,-0.757 12.348,0.611 0.633,0.509 3.493,1.203 6.355,1.542 5.382,0.636 10.297,2.388 10.297,3.671 0,1.237 8.624,9.944 9.85,9.944 0.632,0 1.15,0.369 1.15,0.819 0,0.451 2.279,1.44 5.063,2.198 2.785,0.759 5.287,1.74 5.559,2.181 0.273,0.441 1.568,0.802 2.878,0.802 1.31,0 2.66,0.45 3,1 0.34,0.55 1.51,1 2.601,1 1.09,0 2.949,0.9 4.129,2 1.181,1.1 2.872,2 3.759,2 0.886,0 2.039,0.391 2.561,0.869 0.523,0.477 3.2,1.699 5.95,2.715 2.75,1.015 6.72,3.01 8.822,4.432 2.102,1.422 5.46,2.695 7.462,2.83 2.003,0.135 7.968,1.99 13.257,4.122 5.289,2.132 11.38,4.197 13.537,4.587 2.157,0.391 4.663,1.482 5.569,2.425 1.156,1.204 4.086,1.919 9.824,2.397 6.001,0.501 8.724,1.192 10.234,2.6 9.277,8.642 38.243,13.546 48.496,8.209 2.799,-1.456 14.306,-3.186 21.197,-3.186 3.428,0 7.073,-0.449 8.098,-0.998 1.026,-0.549 4.845,-1.08 8.487,-1.18 3.642,-0.101 6.85,-0.552 7.129,-1.002 0.278,-0.451 1.907,-0.82 3.619,-0.82 1.712,0 6.808,-0.692 11.325,-1.539 4.516,-0.846 8.601,-1.45 9.078,-1.341 0.476,0.109 1.541,-0.054 2.366,-0.362 0.825,-0.307 5.325,-1.042 10,-1.633 4.675,-0.591 10.75,-1.424 13.5,-1.85 14.713,-2.281 95.011,0.925 101,4.032 1.1,0.571 4.695,1.298 7.989,1.615 7.054,0.681 7.627,1.727 4.54,8.294 -1.507,3.205 -3.103,4.878 -5.804,6.08 -3.542,1.578 -7.225,6.285 -7.225,9.233 0,4.53 15.753,1.315 20.501,-4.184 2.538,-2.94 5.194,-5.345 5.902,-5.345 0.708,0 2.102,-0.9 3.097,-2 2.407,-2.66 7.156,-2.66 8,0 1.043,3.285 3.491,2.428 3.57,-1.25 0.159,-7.338 -0.325,-7.15 19.017,-7.382 20.505,-0.246 26.417,-0.681 30.228,-2.226 1.548,-0.628 3.954,-1.142 5.346,-1.142 1.392,0 3.725,-0.64 5.185,-1.423 1.46,-0.782 4.904,-2.387 7.654,-3.566 7.43,-3.185 12.422,-5.679 18,-8.992 2.75,-1.634 6.575,-3.807 8.5,-4.83 1.925,-1.022 5.188,-2.878 7.25,-4.123 2.062,-1.245 3.75,-2.017 3.75,-1.716 0,0.885 11.936,-5.294 16.919,-8.758 2.52,-1.752 6.381,-4 8.581,-4.997 2.2,-0.997 5.125,-2.398 6.5,-3.113 12.824,-6.669 26.555,-13.482 27.171,-13.482 0.418,0 2.888,-1.35 5.49,-3 2.602,-1.65 5.442,-3 6.312,-3 4.669,0 6.336,-3.068 3.356,-6.176 -2.656,-2.77 -2.85,-3.562 -3.174,-12.925 -0.374,-10.831 -1.26,-11.794 -6.254,-6.8 -1.045,1.045 -2.688,1.904 -3.651,1.907 -1.671,0.01 -13.981,5.82 -19.25,9.092 -1.375,0.854 -5.425,3.299 -9,5.433 -3.575,2.135 -8.975,5.783 -12,8.107 -5.308,4.077 -15.663,8.639 -41.827,18.424 -1.831,0.685 -4.001,2.272 -4.824,3.528 -0.823,1.256 -2.7,2.573 -4.173,2.928 -6.226,1.498 -17.673,8.028 -17.996,10.266 -0.364,2.53 -9.66,3.336 -11.96,1.036 -0.906,-0.906 -1.718,-0.891 -3.504,0.064 -4.399,2.355 -37.541,1.16 -44.716,-1.612 -0.825,-0.319 -2.625,-0.742 -4,-0.941 -3.402,-0.491 -11.839,-2.331 -15.5,-3.38 -1.65,-0.473 -5.826,-1.395 -9.279,-2.048 -3.454,-0.654 -6.506,-1.555 -6.782,-2.002 -0.277,-0.448 -1.094,-0.587 -1.817,-0.309 -0.723,0.277 -3.296,-0.186 -5.718,-1.029 -2.422,-0.844 -5.529,-1.546 -6.904,-1.56 -1.375,-0.015 -4.975,-0.711 -8,-1.547 -9.822,-2.715 -27.418,-3.592 -36,-1.795 -5.76,1.206 -10.052,1.4 -18.5,0.834 -13.363,-0.894 -13.521,-0.891 -21,0.503 -3.3,0.615 -11.4,1.484 -18,1.932 -6.6,0.447 -14.7,1.514 -18,2.369 -3.3,0.856 -7.8,1.772 -10,2.037 -2.2,0.265 -5.488,0.948 -7.307,1.519 -1.819,0.571 -3.963,0.787 -4.763,0.48 -0.801,-0.307 -2.012,-0.109 -2.693,0.442 -0.68,0.55 -3.937,1.533 -7.237,2.184 -3.3,0.652 -7.575,1.606 -9.5,2.121 -1.925,0.515 -5.186,1.081 -7.247,1.258 -2.062,0.177 -4.049,0.623 -4.417,0.991 -0.368,0.368 -2.319,0.669 -4.336,0.669 -2.017,0 -3.982,0.316 -4.368,0.701 -0.609,0.61 -5.931,1.881 -22.043,5.267 -3.073,0.646 -4.896,0.379 -8.5,-1.246 -2.524,-1.138 -6.389,-2.258 -8.589,-2.49 -2.199,-0.232 -4.224,-0.717 -4.5,-1.077 -0.275,-0.36 -2.253,-0.74 -4.396,-0.844 -2.142,-0.104 -5.067,-0.624 -6.5,-1.156 -1.432,-0.532 -3.504,-1.302 -4.604,-1.711 -1.1,-0.41 -2.675,-0.886 -3.5,-1.06 -0.825,-0.173 -4.398,-1.455 -7.94,-2.849 -3.541,-1.394 -7.051,-2.535 -7.799,-2.535 -0.748,0 -2.692,-0.689 -4.321,-1.531 -1.628,-0.842 -4.868,-1.781 -7.2,-2.086 -2.332,-0.306 -6.04,-1.134 -8.24,-1.842 -2.2,-0.708 -6.475,-1.891 -9.5,-2.631 -3.025,-0.739 -5.725,-1.584 -6,-1.877 -0.275,-0.293 -1.625,-0.533 -3,-0.533 -1.633,0 -2.842,-0.78 -3.487,-2.25 -1.009,-2.3 -2.513,-3.048 -2.513,-1.25 0,1.517 -3.712,1.181 -12,-1.085 -4.125,-1.127 -8.534,-2.207 -9.798,-2.4 -1.264,-0.192 -2.839,-0.795 -3.5,-1.339 -0.661,-0.544 -3.452,-1.305 -6.202,-1.691 -2.75,-0.386 -6.125,-1.422 -7.5,-2.302 -1.375,-0.879 -3.41,-1.487 -4.522,-1.349 -2.993,0.369 -14.239,-2.448 -17.005,-4.26 -1.322,-0.866 -3.293,-1.574 -4.381,-1.574 -1.088,0 -2.587,-0.868 -3.33,-1.929 -0.743,-1.062 -2.511,-2.221 -3.929,-2.577 -1.417,-0.355 -3.116,-1.625 -3.775,-2.82 -1.208,-2.192 -8.329,-7.674 -9.968,-7.674 -1.068,0 -7.09,-6.723 -7.09,-7.915 0,-2.25 -17.443,-18.082 -24.623,-22.348 -11.4,-6.775 -19.292,-11.666 -24.04,-14.901 -2.29,-1.56 -4.574,-2.836 -5.076,-2.836 -0.502,0 -1.969,-1.125 -3.261,-2.5 -1.292,-1.375 -2.734,-2.5 -3.206,-2.5 -1.643,0 -30.071,-21.361 -33.794,-25.394 -1.375,-1.489 -4.525,-4.114 -7,-5.834 -2.475,-1.719 -7.094,-5.742 -10.265,-8.94 -3.171,-3.198 -9.246,-8.481 -13.5,-11.742 -8.252,-6.324 -31.31,-29.269 -35.262,-35.09 -1.307,-1.925 -2.623,-3.725 -2.925,-4 -9.16,-8.355 -12.761,-48.093 -4.203,-46.381 4.321,0.864 6.093,-1.988 2.229,-3.588 -6.131,-2.54 -4.803,-11.304 2.547,-16.813 5.455,-4.088 5.883,-6.591 0.969,-5.669 -3.837,0.72 -6.46,-6.361 -5.088,-13.734 0.34,-1.823 0.762,-9.39 0.938,-16.815 1.186,-49.9 1.274,-51.202 4.118,-60.578 1.488,-4.907 3.038,-12.555 3.445,-16.996 0.406,-4.441 1.227,-8.988 1.825,-10.104 0.597,-1.116 1.251,-3.642 1.453,-5.612 0.203,-1.97 0.838,-4.173 1.413,-4.896 0.575,-0.723 1.596,-3.023 2.269,-5.112 0.673,-2.089 2.307,-4.881 3.63,-6.204 1.324,-1.324 2.407,-3.134 2.407,-4.022 0,-3.044 12.216,-19.577 15.371,-20.803 1.171,-0.456 4.604,-1.019 7.629,-1.252 5.314,-0.409 5.72,-0.657 12,-7.293 3.575,-3.778 7.287,-7.138 8.25,-7.467 0.963,-0.329 1.75,-1.062 1.75,-1.63 0,-0.567 0.59,-1.031 1.311,-1.031 0.722,0 2.382,-0.997 3.69,-2.216 1.985,-1.848 3.655,-2.244 10.086,-2.388 4.239,-0.095 9.234,-0.677 11.101,-1.293 2.277,-0.751 4.993,-0.822 8.244,-0.215 3.406,0.637 6.519,0.513 10.459,-0.415 3.085,-0.726 12.584,-1.86 21.109,-2.518 8.525,-0.659 15.95,-1.468 16.5,-1.797 0.55,-0.33 1.767,-0.72 2.704,-0.866 0.937,-0.146 3.187,-1.17 5,-2.275 2.507,-1.529 5.09,-2.018 10.796,-2.046 11.29,-0.054 28.306,-2.448 31.714,-4.461 2.685,-1.586 4.152,-1.656 14.872,-0.712 6.542,0.577 12.349,0.694 12.904,0.262 4.711,-3.669 26.388,-1.59 31.901,3.06 1.819,1.534 12.188,9.18 16.347,12.054 2.128,1.47 4.928,4.733 6.223,7.25 1.294,2.517 2.733,4.576 3.196,4.576 0.464,0 0.746,0.338 0.628,0.75 -0.426,1.489 5.107,8.856 10.354,13.786 2.949,2.77 7.359,8.058 9.801,11.75 2.442,3.693 4.922,6.714 5.51,6.714 0.589,0 2.191,1.027 3.56,2.282 11.955,10.955 25.103,12.427 40.694,4.557 7.738,-3.907 15.296,-10.086 15.296,-12.507 0,-0.694 0.9,-1.743 2,-2.332 1.1,-0.589 2,-1.621 2,-2.295 0,-0.673 0.9,-1.786 2,-2.473 1.1,-0.687 2,-1.854 2,-2.594 0,-0.74 1.121,-2.556 2.492,-4.034 1.37,-1.479 2.735,-3.907 3.032,-5.396 1.355,-6.783 3.202,-10.716 5.172,-11.009 3.382,-0.504 6.121,-8.349 8.798,-25.199 0.83,-5.225 1.987,-11.909 2.572,-14.853 0.584,-2.944 0.84,-5.574 0.569,-5.845 -0.6,-0.601 -6.565,5.827 -6.606,7.119 -0.016,0.507 -0.707,1.67 -1.535,2.586 -1.753,1.937 -2.454,14.812 -1.203,22.11 0.792,4.616 0.792,4.616 -2.495,5.274 -4.264,0.853 -6.401,-1.478 -4.363,-4.758 1.408,-2.267 1.648,-19.885 0.289,-21.244 -0.397,-0.397 -0.722,-2.897 -0.722,-5.556 0,-3.5 -0.552,-5.385 -2,-6.833 -3.002,-3.002 -2.745,-8.775 0.428,-9.571 3.282,-0.824 4.175,-4.47 2.308,-9.429 -1.053,-2.796 -3.747,-19.822 -4.38,-27.681 -0.346,-4.301 -0.934,-8.269 -1.307,-8.819 -0.372,-0.55 -0.777,-2.8 -0.9,-5 -0.228,-4.105 -0.825,-7.467 -3.638,-20.5 -0.89,-4.125 -1.881,-10.425 -2.202,-14 -0.321,-3.575 -0.957,-6.979 -1.415,-7.565 -0.458,-0.586 -0.959,-3.736 -1.113,-7 -0.155,-3.264 -0.651,-6.207 -1.103,-6.538 -0.767,-0.563 -1.36,-15.734 -1.677,-42.897 -0.136,-11.558 1.404,-30.482 3.009,-37 2.558,-10.389 3.868,-16.1 4.93,-21.5 0.649,-3.3 1.603,-7.382 2.12,-9.071 0.517,-1.689 0.94,-5.97 0.94,-9.514 0,-4.059 0.761,-8.473 2.058,-11.929 2.682,-7.153 2.937,-8.196 4.02,-16.486 2.208,-16.901 2.26,-21.877 0.265,-25.598 -2.415,-4.507 -15.019,-17.22 -16.292,-16.433 -0.531,0.328 -3.122,-1.759 -5.758,-4.637 -2.636,-2.879 -8.555,-9.125 -13.154,-13.882 -4.598,-4.757 -9.421,-10.629 -10.719,-13.049 -3.36,-6.271 -10.42,-21.84 -10.42,-22.98 0,-0.528 -1.059,-2.639 -2.354,-4.691 -2.248,-3.563 -3.739,-7.101 -4.268,-10.13 -0.135,-0.77 -0.755,-1.715 -1.378,-2.1 -0.623,-0.385 -1.24,-1.33 -1.371,-2.1 -0.131,-0.77 -1.001,-2.84 -1.934,-4.6 -0.932,-1.761 -1.695,-3.75 -1.695,-4.422 0,-0.671 -0.709,-2.004 -1.576,-2.962 -0.866,-0.957 -1.673,-2.41 -1.793,-3.227 -0.12,-0.818 -0.735,-2.11 -1.367,-2.871 -0.632,-0.761 -1.616,-2.614 -2.188,-4.119 -0.589,-1.547 -2.242,-3.164 -3.808,-3.724 -1.522,-0.544 -3.893,-1.617 -5.268,-2.384 -2.606,-1.455 -36.751,-15.617 -38.5,-15.968 -0.55,-0.11 -1.866,-0.695 -2.924,-1.299 -1.829,-1.044 -7.189,-0.047 -8.576,1.595 -0.275,0.326 -2.075,1.781 -4,3.235 -1.925,1.453 -4.4,3.475 -5.5,4.494 -1.1,1.019 -3.912,3.151 -6.25,4.738 -2.337,1.587 -4.25,3.275 -4.25,3.75 0,0.475 -0.675,0.864 -1.5,0.864 -0.825,0 -1.5,0.464 -1.5,1.031 0,0.568 -0.787,1.317 -1.75,1.667 -0.963,0.349 -3.39,1.91 -5.394,3.468 -4.162,3.237 -5.494,3.425 -9.492,1.34 -1.575,-0.821 -3.539,-1.511 -4.364,-1.532 -0.825,-0.021 -2.374,-0.698 -3.441,-1.506 -1.068,-0.807 -2.599,-1.468 -3.404,-1.468 -0.804,0 -3.95,-1.177 -6.99,-2.615 -3.04,-1.438 -6.009,-2.689 -6.596,-2.78 -0.588,-0.091 -3.206,-1.204 -5.817,-2.473 -2.611,-1.27 -5.311,-2.424 -6,-2.565 -0.689,-0.141 -3.431,-1.228 -6.095,-2.416 -2.663,-1.188 -6.038,-2.459 -7.5,-2.824 -1.461,-0.366 -4.693,-1.687 -7.182,-2.936 -2.489,-1.249 -5.639,-2.491 -7,-2.761 -1.361,-0.269 -4.258,-1.421 -6.436,-2.56 -2.179,-1.138 -4.74,-2.07 -5.691,-2.07 -0.952,0 -1.977,-0.399 -2.278,-0.887 -0.301,-0.487 -2.095,-1.177 -3.986,-1.531 -1.891,-0.355 -3.605,-1.146 -3.81,-1.759 -0.204,-0.613 -2.599,1.508 -5.322,4.711 -2.724,3.204 -5.964,6.849 -7.202,8.1 -1.238,1.251 -2.25,2.749 -2.25,3.329 0,1.11 -3.017,-0.273 -6.241,-2.86 -1.025,-0.822 -5.877,-1.747 -11.783,-2.246 -6.998,-0.592 -11.168,-1.472 -13.759,-2.902 -7.726,-4.266 -9.733,-5.476 -10.268,-6.192 -0.303,-0.405 -8.628,-1.227 -18.5,-1.826 -22.06,-1.339 -30.787,-5.583 -37.337,-18.156 -10.753,-20.643 -52.84,-29.26 -81.612,-16.71 -1.1,0.48 -2.675,0.997 -3.5,1.151 -0.825,0.153 -2.088,1.065 -2.807,2.028 -0.718,0.962 -1.906,1.75 -2.64,1.75 -3.949,0 -20.952,15.315 -24.446,22.02 -2.467,4.733 -2.306,5.198 2.956,8.52 3.656,2.308 4.26,7.46 0.874,7.46 -1.656,0 -2.902,6.083 -1.657,8.094 1.82,2.939 4.675,1.903 7.081,-2.572 2.232,-4.151 6.411,-8.519 8.152,-8.521 0.558,0 3.321,-1.555 6.14,-3.454 3.633,-2.446 6.471,-3.539 9.736,-3.75 2.535,-0.163 4.61,-0.576 4.61,-0.917 0,-2.622 27.565,-4.752 31.843,-2.461 3.237,1.734 6.125,2.798 8.259,3.042 3.413,0.39 8.382,7.117 7.313,9.902 -0.345,0.9 0.489,2.435 2.071,3.811 3.365,2.925 7.515,11.123 7.515,14.843 0,5.154 1.589,7.702 5.181,8.31 1.825,0.309 5.569,1.064 8.319,1.678 2.75,0.613 9.275,1.453 14.5,1.866 5.782,0.457 10.674,1.409 12.5,2.434 3.399,1.907 7.122,2.129 12.384,0.74 1.989,-0.525 4.854,-1.208 6.366,-1.519 2.365,-0.485 2.75,-1.051 2.75,-4.045 0,-4.685 1.629,-4.453 6.973,0.991 3.193,3.254 4.724,4.194 5.619,3.452 0.827,-0.686 1.435,-0.69 1.854,-0.011 0.418,0.675 1.493,0.681 3.24,0.016 2.085,-0.792 3.042,-0.619 4.715,0.854 3.072,2.705 7.978,5.698 8.892,5.425 2.05,-0.612 4.424,7.812 3.342,11.864 -1.505,5.638 -0.155,7.428 5.6,7.428 4.938,0 12.199,5.911 13.176,10.725 4.001,19.728 1.546,26.008 -15.278,39.078 -3.648,2.835 -6.858,5.393 -7.133,5.685 -0.275,0.292 -2.525,1.843 -5,3.446 -2.475,1.604 -7.963,5.555 -12.195,8.781 -7.771,5.921 -9.62,6.98 -35.805,20.494 -7.975,4.116 -14.989,7.884 -15.586,8.374 -0.598,0.49 -2.988,1.561 -5.312,2.381 -5.585,1.97 -21.205,12.133 -28.102,18.285 -9.423,8.403 -10.931,9.159 -18.601,9.323 -3.795,0.082 -9.824,0.736 -13.399,1.454 -3.575,0.719 -11.562,1.627 -17.75,2.019 -6.187,0.392 -11.25,1.036 -11.25,1.431 0,0.395 -4.387,1.447 -9.75,2.336 -8.785,1.458 -15.178,2.336 -41.75,5.736 -9.724,1.244 -12.117,1.573 -25.5,3.507 -5.775,0.835 -12.525,1.743 -15,2.019 -2.475,0.275 -7.875,0.935 -12,1.465 -4.125,0.531 -8.175,1.01 -9,1.065 -0.825,0.056 -5.885,0.73 -11.243,1.498 -10.915,1.566 -17.4,1.785 -18.124,0.613 -0.267,-0.432 -2.749,-0.655 -5.516,-0.495 -5.032,0.29 -5.032,0.29 -2.991,-2.965 1.122,-1.79 3.369,-5.434 4.994,-8.098 2.031,-3.331 3.424,-4.662 4.461,-4.264 1.385,0.531 3.766,-1.593 13.169,-11.746 1.238,-1.336 2.25,-2.938 2.25,-3.559 0,-1.348 4.774,-8.795 7.25,-11.31 0.963,-0.978 1.75,-2.121 1.75,-2.541 0,-0.419 0.976,-1.207 2.168,-1.75 1.193,-0.543 2.655,-1.819 3.25,-2.836 0.595,-1.016 2.432,-3.299 4.082,-5.073 1.65,-1.774 5.25,-5.85 8,-9.059 2.75,-3.208 9.537,-10.392 15.083,-15.964 9.73,-9.775 11.366,-12.507 9.161,-15.301 -0.978,-1.241 4.166,-7.971 8.463,-11.072 1.004,-0.726 1.567,-1.738 1.251,-2.25 -0.317,-0.513 -0.13,-0.932 0.416,-0.932 0.545,0 1.288,-0.934 1.65,-2.075 0.362,-1.142 0.924,-1.811 1.248,-1.486 0.625,0.624 6.228,-4.328 6.228,-5.505 0,-0.38 2.137,-2.973 4.75,-5.762 16.435,-17.543 16.554,-17.726 12.551,-19.248 -5.944,-2.26 -31.785,1.926 -29.011,4.699 0.33,0.33 -0.742,1.728 -2.381,3.107 -1.64,1.38 -3.616,3.692 -4.393,5.139 -0.776,1.447 -3.573,4.921 -6.214,7.721 -2.641,2.799 -6.602,7.262 -8.802,9.918 -2.2,2.656 -6.025,7.175 -8.5,10.043 -13.233,15.335 -18,21.41 -18,22.939 0,0.328 -1.8,2.98 -4,5.894 -2.2,2.914 -4,5.819 -4,6.457 0,0.637 -0.45,1.159 -1,1.159 -0.55,0 -1,0.675 -1,1.5 0,0.825 -0.395,1.5 -0.877,1.5 -0.482,0 -1.884,2.362 -3.116,5.25 -4.997,11.715 -8.068,16.589 -14.873,23.606 -3.924,4.047 -7.134,7.729 -7.134,8.183 0,0.454 -0.9,1.112 -2,1.461 -1.1,0.349 -2,1.279 -2,2.067 0,0.788 -0.374,1.433 -0.831,1.433 -0.457,0 -1.429,1.118 -2.16,2.483 -0.731,1.366 -2.091,2.726 -3.023,3.021 -0.931,0.296 -2.547,2.2 -3.59,4.232 -3.692,7.194 -7.531,10.628 -16.896,15.117 -3.431,1.645 -45.33,4.947 -56.5,4.453 -3.756,-0.167 -12.328,-2.425 -15.741,-4.148 -2.068,-1.044 -5.334,-2.705 -7.259,-3.693 -6.577,-3.373 -19.758,-18.27 -20.62,-23.303 -0.126,-0.735 -1.008,-2.198 -1.959,-3.25 -0.952,-1.051 -1.393,-1.912 -0.981,-1.912 0.413,0 -0.437,-2.025 -1.887,-4.5 -1.451,-2.475 -2.368,-4.5 -2.039,-4.5 0.33,0 -0.06,-1.237 -0.866,-2.75 -1.53,-2.871 -6.83,-17.607 -6.823,-18.967 0,-0.431 -0.462,-1.345 -1.032,-2.033 -0.571,-0.687 -0.752,-1.25 -0.402,-1.25 0.35,0 -0.047,-1.635 -0.882,-3.633 -0.835,-1.998 -1.721,-4.749 -1.968,-6.113 -0.247,-1.364 -1.985,-7.492 -3.861,-13.617 -4.302,-14.044 -6.384,-22.989 -7.712,-33.137 -0.575,-4.4 -1.719,-12.725 -2.541,-18.5 -0.821,-5.775 -1.316,-12.525 -1.099,-15 0.217,-2.475 0.01,-5.257 -0.465,-6.181 -0.473,-0.925 -1.113,-13.75 -1.423,-28.5 -0.311,-14.751 -0.759,-31.769 -0.997,-37.819 -0.239,-6.05 -0.604,-15.725 -0.813,-21.5 -0.209,-5.775 -0.697,-11.689 -1.086,-13.142 -0.443,-1.658 -0.157,-3.707 0.77,-5.5 0.978,-1.895 1.711,-7.746 2.172,-17.358 0.699,-14.573 2.224,-23.298 5.003,-28.627 0.824,-1.58 1.501,-3.635 1.505,-4.566 0.01,-2.07 3.926,-9.007 5.71,-10.107 0.713,-0.44 1.296,-1.249 1.296,-1.797 0,-1.831 5.436,-6.155 11,-8.751 7.586,-3.539 38.277,-5.94 40.013,-3.131 0.316,0.511 1.454,1.065 2.53,1.233 1.077,0.167 2.407,0.568 2.957,0.891 2.459,1.444 14.542,4.947 15.347,4.449 0.492,-0.304 1.922,0.338 3.177,1.427 1.255,1.088 2.888,1.979 3.629,1.979 2.295,0 2.812,0.141 3.932,1.07 3.774,3.133 27.283,1.284 42.915,-3.375 7.018,-2.091 8.3,-2.443 10.899,-2.989 0.77,-0.161 2.206,-0.949 3.192,-1.75 1.463,-1.188 1.637,-1.197 0.946,-0.051 -0.63,1.046 -0.488,1.181 0.558,0.528 0.773,-0.482 2.08,-0.976 2.905,-1.097 1.804,-0.266 12.97,-5.426 14.792,-6.836 4.626,-3.58 13.062,-11.927 12.68,-12.546 -0.253,-0.409 0.24,-1.013 1.097,-1.342 0.857,-0.329 1.307,-1.004 1,-1.5 -0.307,-0.496 0.115,-1.16 0.937,-1.476 0.822,-0.315 1.494,-1.262 1.494,-2.105 0,-0.842 0.45,-1.531 1,-1.531 0.55,0 1,-0.81 1,-1.8 0,-0.99 0.394,-2.228 0.877,-2.75 2.734,-2.96397 8.228,-23.54599 7.467,-27.97699 -0.186,-1.085 -0.557,-3.998 -0.823,-6.473 -0.707,-6.571 -1.472,-10.041 -2.738,-12.405 -0.616,-1.152 -1.045,-2.207 -0.952,-2.345 0.093,-0.138 0.136,-0.362 0.095,-0.5 -0.041,-0.138 -0.275,-1.34 -0.52,-2.672 -0.245,-1.331 -0.828,-2.906 -1.296,-3.5 -0.467,-0.593 -1.145,-2.721 -1.506,-4.73 -0.362,-2.008 -1.697,-5.608 -2.967,-8 -1.271,-2.391 -2.59,-6.148 -2.933,-8.348 -1.289,-8.281 -1.917,-11.03 -2.751,-12.046 -0.473,-0.575 -0.869,-1.925 -0.881,-3 -0.011,-1.075 -0.39,-5.541 -0.841,-9.924 -1.482,-14.401 0.822,-24.83 6.04,-27.331 1.514,-0.726 3.356,-2.755 4.093,-4.509 0.737,-1.755 3.354,-4.99 5.814,-7.19 11.976,-10.709 24.428,-20.717 32.186,-25.866 3.157,-2.096 7.725,-5.738 10.149,-8.095 2.425,-2.356 4.576,-4.117 4.781,-3.912 0.618,0.619 6.369,-6.989 7.155,-9.467 0.404,-1.271 0.971,-2.073 1.261,-1.783 2.054,2.053 10.581,-14.788 13.343,-26.352 3.066,-12.836 1.683,-37.845 -2.904,-52.525 -2.61,-8.35 -12.507,-32.254 -14.078,-34 -2.857,-3.175 -14.018,-20.232 -15.098,-23.072 -1.012,-2.661 -3.561,-5.717 -4.348,-5.214 -0.586,0.375 -10.625,-9.136 -10.625,-10.067 0,-0.394 -1.395,-1.54 -3.099,-2.546 -1.705,-1.007 -3.692,-3.251 -4.418,-4.986 -0.725,-1.736 -2.31,-4.046 -3.522,-5.135 -6.628,-5.952 -13.561,-17.168 -16.966,-27.446 -2.136,-6.45 -5.202,-13.981 -7.03,-17.27 -0.531,-0.955 -0.965,-2.402 -0.965,-3.215 0,-1.563 -1.919,-7.749 -4.979,-16.049 -1.013,-2.75 -2.589,-8.6 -3.502,-13 -0.912,-4.4 -1.92,-8.675 -2.24,-9.5 -0.962,-2.484 -1.16,-3.227 -2.752,-10.332 -0.842,-3.757 -3.105,-10.105 -5.029,-14.105 -1.924,-4 -3.498,-7.802 -3.498,-8.449 0,-1.593 -3.788,-13.186 -5.015,-15.35 -0.542,-0.955 -0.985,-2.57 -0.985,-3.587 0,-5.8 -13.234,-40.884 -18.584,-49.268 -0.495,-0.775 -1.404,-2.847 -2.021,-4.604 -0.617,-1.756 -3.669,-7.606 -6.783,-13 -6.143,-10.639 -6.019,-10.434 -12.612,-20.915 -6.123,-9.733 -12.812,-21.172 -17.621,-30.13 -0.957,-1.782 -2.671,-3.529 -3.809,-3.883 -1.139,-0.354 -3.71,-1.934 -5.714,-3.511 -2.004,-1.576 -3.959,-2.866 -4.345,-2.866 -0.707,0 -14.889,-6.768 -34.862,-16.638 -5.969,-2.949 -11.705,-5.362 -12.747,-5.362 -1.042,0 -4.483,-0.847 -7.648,-1.883 -3.165,-1.035 -6.654,-1.889 -7.754,-1.897 -1.1,-0.008 -6.275,-0.544 -11.5,-1.192 -13.765,-1.706 -39.637,-2.393 -45.5,-1.208 -17.232,3.483 -22.324,4.568 -34,7.245 -7.15,1.64 -14.35,3.381 -16,3.87 -1.65,0.489 -6.15,1.639 -10,2.555 -9.983,2.376 -13.861,3.768 -24.541,8.809 -19.983,9.432 -22.882,10.701 -24.446,10.701 -4.2,0 -21.513,14.196 -21.513,17.64 0,0.656 -0.349,1.343 -0.775,1.527 -1.22,0.525 -8.634,11.914 -10.632,16.333 -4.529,10.019 -6.89,14.5 -7.638,14.5 -2.794,0 -7.74,15.951 -8.373,27 -0.204,3.575 -1.084,9.2 -1.954,12.5 -0.87,3.3 -3.418,14.506 -5.662,24.902 -2.244,10.396 -4.954,20.615 -6.023,22.71 -1.069,2.094 -1.943,4.471 -1.943,5.28 0,2.199 -9.169,11.212 -21,20.643 -5.775,4.604 -10.725,8.617 -11,8.918 -0.275,0.301 -3.2,2.75 -6.5,5.442 -3.3,2.693 -10.725,9.668 -16.5,15.5 -5.775,5.833 -12.095,11.695 -14.044,13.027 -6.637,4.535 -14.956,19.344 -14.956,26.624 0,1.388 -0.747,3.665 -1.661,5.059 -1.728,2.638 -2.171,3.436 -8.97,16.175 -2.273,4.258 -10.32,23.261 -17.883,42.23 -7.564,18.97 -14.142,34.918 -14.619,35.44 -0.477,0.523 -0.867,1.61 -0.867,2.416 0,0.806 -2.025,4.715 -4.5,8.686 -2.475,3.971 -4.5,8.154 -4.5,9.295 0,1.141 -0.826,2.88 -1.837,3.864 -2.896,2.821 -14.881,22.205 -27.385,44.289 -1.09,1.925 -3.618,6.2 -5.617,9.5 -2,3.3 -4.317,7.236 -5.148,8.747 -7.082,12.864 -30.205,47.523 -35.647,53.431 -2.623,2.849 -5.099,5.999 -5.503,7 -0.404,1.002 -3.236,4.273 -6.294,7.268 -3.057,2.996 -5.783,6.146 -6.057,7 -0.274,0.855 -2.752,3.087 -5.507,4.961 -2.754,1.875 -6.128,4.877 -7.497,6.672 -1.37,1.795 -4.915,4.652 -7.88,6.348 -3.394,1.942 -5.834,4.156 -6.589,5.979 -1.638,3.955 -4.84,6.772 -13.864,12.197 -4.221,2.538 -8.575,6.003 -9.675,7.699 -1.1,1.697 -3.31,3.645 -4.911,4.33 -1.601,0.684 -4.987,2.672 -7.524,4.417 -2.536,1.745 -5.611,3.49 -6.832,3.877 -1.222,0.388 -2.799,1.283 -3.506,1.99 -1.476,1.476 -12.803,7.579 -14.073,7.582 -0.465,10e-4 -2.091,0.889 -3.613,1.972 -1.521,1.084 -3.014,1.723 -3.317,1.421 -0.303,-0.303 -1.638,0.162 -2.967,1.032 -1.329,0.871 -4.779,2.285 -7.668,3.143 -2.889,0.858 -6.678,2.338 -8.421,3.289 -1.742,0.951 -4.953,1.866 -7.135,2.032 -2.182,0.167 -4.87,0.936 -5.973,1.708 -1.103,0.773 -3.39,1.405 -5.083,1.405 -1.692,0 -3.504,0.391 -4.027,0.869 -0.522,0.477 -5.656,1.633 -11.407,2.568 -5.751,0.936 -10.756,1.885 -11.121,2.111 -4.639,2.868 -37.944,1.237 -60.422,-2.958 -0.55,-0.102 -1.983,-0.727 -3.184,-1.388 -1.202,-0.661 -3.254,-1.202 -4.56,-1.202 -2.751,0 -14.985,-5.753 -22.256,-10.466 -16.915,-10.964 -24.409,-16.154 -27.5,-19.043 -1.925,-1.799 -4.85,-3.975 -6.5,-4.836 -5.1,-2.661 -16.321,-15.031 -22.261,-24.539 -1.506,-2.412 -4.77194,-6.802 -7.25594,-9.756 -2.485,-2.954 -5.28,-7.517 -6.211,-10.14 -0.932,-2.623 -3.258,-6.596 -5.17,-8.83 -3.827,-4.471 -12.118,-23.796 -13.136,-30.616 -0.347,-2.327 -0.827,-4.55 -1.068,-4.939 -0.24,-0.388 -1.128,-6.248 -1.972,-13.021 -2.218,-17.79 -1.356,-34.057 2.721,-51.314 0.519,-2.2 1.312,-5.679 1.761,-7.732 0.449,-2.052 1.277,-4.302 1.839,-5 0.562,-0.697 1.327,-2.694 1.699,-4.436 0.372,-1.742 1.549,-4.173 2.615,-5.403 1.067,-1.229 1.939,-2.796 1.939,-3.483 0,-1.807 4.204,-10.605 6.52,-13.643 1.089,-1.429 2.88,-3.877 3.98,-5.439 1.1,-1.563 3.463,-4.378 5.25,-6.256 1.788,-1.878 3.253,-3.683 3.257,-4.011 0.004,-0.329 1.69094,-1.696 3.74994,-3.039 2.059,-1.344 4.198,-2.919 4.754,-3.5 0.556,-0.582 3.706,-2.404 7,-4.048 3.294,-1.645 6.889,-3.943 7.989,-5.107 1.1,-1.164 4.925,-3.138 8.5,-4.386 8.796,-3.072 18.855,-7.753 22.5,-10.469 1.65,-1.23 5.691,-3.728 8.981,-5.551 3.289,-1.822 6.809,-4.368 7.822,-5.655 1.013,-1.288 2.404,-2.342 3.09,-2.342 1.138,0 8.42,-7.275 35.627,-35.592 8.696,-9.051 15.344,-15.177 21.98,-20.253 1.375,-1.052 4.877,-4.217 7.782,-7.034 2.905,-2.816 5.681,-5.121 6.168,-5.121 0.488,0 2.739,-1.779 5.002,-3.954 2.263,-2.174 5.337,-4.906 6.831,-6.071 6.227,-4.853 20.217,-19.158 20.217,-20.672 0,-0.9 0.261,-1.375 0.58,-1.056 0.637,0.636 5.127,-4.223 10.393,-11.247 1.855,-2.475 3.914,-4.958 4.574,-5.518 1.855,-1.573 14.453,-21.694 14.453,-23.084 0,-0.677 0.349,-1.381 0.776,-1.565 0.426,-0.183 5.228,-9.292 10.669,-20.242 5.441,-10.951 11.408,-22.426 13.259,-25.5 1.852,-3.075 3.983,-7.667 4.737,-10.204 1.883,-6.34 21.179,-46.101 24.654,-50.801 1.665,-2.253 2.19,-4.835 2.639,-12.981 0.308,-5.593 0.944,-10.406 1.413,-10.696 2.059,-1.272 -0.465,-51.504 -3.019,-60.084 -0.52,-1.746 -0.755,-3.364 -0.523,-3.596 0.418,-0.419 -1.272,-5.011 -4.316,-11.729 -0.873,-1.925 -3.094,-5.871 -4.938,-8.769 -1.843,-2.899 -3.351,-5.608 -3.351,-6.022 0,-5.231 -29.178,-25.469 -42,-29.132 -2.475,-0.707 -5.512,-1.678 -6.748,-2.159 -9.347,-3.632 -25.956,-4.905 -38.752,-2.971 -18.275,2.763 -23.442,3.747 -31,5.904 -7.594,2.167 -22.308,8.424 -29.5,12.545 -2.475,1.418 -5.175,2.842 -6,3.165 -0.825,0.323 -2.625,1.253 -4,2.067 -1.375,0.815 -3.886,2.106 -5.58,2.869 -1.693,0.763 -3.661,2.088 -4.372,2.945 -0.711,0.857 -2.077,1.558 -3.036,1.558 -0.958,0 -2.886,0.9 -4.285,2 -1.398,1.1 -3.034,2 -3.635,2 -0.6,0 -1.092,0.8 -1.092,1.777 0,0.978 -1.35,2.962 -3,4.41 -1.65,1.448 -3,2.458 -3,2.245 0,-0.213 -2.113,0.952 -4.696,2.59 -2.582,1.638 -5.62,2.984 -6.75,2.99 -1.13,0.007 -3.877,1.695 -6.105,3.75 -2.228,2.056 -8.742,7.788 -14.476,12.738 -5.734,4.95 -12.236,10.715 -14.449,12.81 -13.85,13.116 -47.46294,37.69 -51.55294,37.69 -1.56,0 -11.17,9.869 -10.564,10.849 0.25,0.405 -0.441,0.803 -1.535,0.886 -3.421,0.257 -7.507,2.521 -8.461,4.687 -0.783,1.779 -1.741,2.061 -6.663,1.962 -3.161,-0.064 -5.748,0.274 -5.748,0.75 0,0.476 -0.862,0.866 -1.917,0.866 -1.054,0 -2.066,0.4 -2.25,0.889 -0.183,0.489 -2.133,1.106 -4.333,1.371 -4.194,0.505 -9.552,2.569 -10.638,4.098 -0.351,0.494 -1.108,0.608 -1.681,0.254 -0.574,-0.355 -1.28,-0.261 -1.57,0.208 -0.29,0.469 -2.233,0.916 -4.319,0.994 -2.086,0.077 -5.142,0.444 -6.792,0.815 -13.793,3.101 -43.829,2.439 -55,-1.213 -5.78,-1.89 -10.948,-4.323 -18,-8.478 -2.75,-1.62 -6.237,-3.438 -7.75,-4.04 -1.513,-0.601 -2.752,-1.387 -2.753,-1.746 -0.002,-0.359 -2.477,-1.986 -5.5,-3.617 -4.637,-2.501 -5.497,-3.401 -5.497,-5.75 0,-2.118 -0.479,-2.785 -2,-2.785 -1.1,0 -2,-0.367 -2,-0.815 0,-0.448 -1.564,-1.56 -3.475,-2.472 -2.149,-1.024 -3.997,-2.907 -4.845,-4.935 -0.754,-1.803 -2.096,-3.88 -2.983,-4.615 -1.103,-0.915 -1.431,-2.241 -1.04,-4.199 0.36,-1.798 -0.594,-6.687 -2.569,-13.162 -1.727,-5.666 -3.869,-12.777 -4.759,-15.802 -0.89,-3.025 -2.228,-7.197 -2.974,-9.27 -0.745,-2.074 -1.355,-4.935 -1.355,-6.357 0,-1.423 -1.382,-5.576 -3.07,-9.23 -4.663,-10.089 -4.732,-10.263 -6.372,-16.032 -0.843,-2.964 -2.692,-6.909 -4.109,-8.767 -4.029,-5.282 -9.449,-15.331 -9.449,-17.518 0,-3.363 -7.901,-29.537 -12.138,-40.208 -7.87,-19.823 -29.918,-54.603 -33.672,-53.117 -6.944,2.749 -14.333,-0.44 -10.61,-4.58 0.781,-0.868 1.42,-2.029 1.42,-2.58 0,-1.589 -13.897,-11.341 -16.161,-11.341 -1.8,0 -20.466,-9.476 -21.839,-11.087 -0.275,-0.322 -2.75,-1.859 -5.5,-3.414 -19.831,-11.216 -21.041,-12.247 -32.321,-27.547 -4.562,-6.188 -8.923,-10.833 -12.628,-13.452 -3.113,-2.2 -7.633,-5.463 -10.045,-7.25 -2.412,-1.788 -4.841,-3.25 -5.396,-3.25 -0.556,0 -1.37,-0.562 -1.81,-1.25 -1.589,-2.483 -7.396,-5.853999 -9.134,-5.302999 -2.196,0.697 -10.479,-5.188001 -9.799,-6.961001 0.265,-0.691 -0.609,-2.205 -1.942,-3.365 -1.334,-1.159 -2.429,-2.448 -2.433,-2.864 -0.008,-0.81 -4.767,-3.257 -6.334,-3.257 -1.359,0 -16.368,-6.456 -29.158,-12.541 -18.469,-8.788 -25.887,-12.161 -28.5,-12.962 -1.375,-0.422 -3.388,-1.381 -4.473,-2.132 -1.084,-0.751 -2.518,-1.365 -3.184,-1.365 -0.667,0 -2.48,-0.511 -4.028,-1.135 -1.548,-0.624 -3.94,-1.279 -5.315,-1.456 -1.375,-0.177 -3.625,-0.632 -5,-1.01 -1.375,-0.378 -3.4,-0.825 -4.5,-0.992 -3.944,-0.601 -42.509,-0.52 -43.496,0.091 -0.958,0.592 -7.341,1.899 -15.004,3.073 -1.925,0.295 -4.77,1.03 -6.322,1.634 -1.552,0.603 -4.252,1.192 -6,1.308 -1.748,0.116 -5.878,0.764 -9.178,1.441 -3.3,0.677 -7.8,1.559 -10,1.96 -2.2,0.401 -6.25,1.735 -9,2.966 -3.003,1.343 -10.392,3.001 -18.5,4.152 -7.425,1.054 -15.075,2.34 -17,2.858 -1.925,0.517 -6.65,1.235 -10.5,1.594 -3.85,0.359 -8.626,1.073 -10.614,1.587 -7.542,1.947 -11.991,1.505 -14.108,-1.402 -1.148,-1.575 -2.902,-2.669 -4.281,-2.669 -3.057,0 -13.803,-2.737 -19.497,-4.965 -2.475,-0.969 -7.2,-2.809 -10.5,-4.09 -3.3,-1.28 -6.579,-2.901 -7.286,-3.602 -0.708,-0.7 -2.508,-1.995 -4,-2.879 -2.65,-1.567 -9.214,-10.439 -9.214,-12.452 0,-0.557 -0.45,-1.012 -1,-1.012 -0.55,0 -1,-0.653 -1,-1.45 0,-0.798 -0.705,-1.845 -1.568,-2.328 -0.862,-0.482 -1.993,-2.774 -2.514,-5.093 -0.521,-2.318 -2.066,-5.987 -3.433,-8.152 -1.367,-2.166 -2.485,-4.366 -2.485,-4.89 0,-0.524 -0.788,-1.205 -1.75,-1.513 -0.962,-0.308 -3.1,-3.151 -4.75,-6.3169997 -3.524,-6.76200034 -57.109,-10.2380003 -54.325,-3.5240003 m 187.275,64.127 c -0.522,0.474 -5.571,1.4 -11.219,2.06 -5.648,0.659 -12.398,1.817 -15,2.572 -2.602,0.755 -10.382,2.088 -17.29,2.962 -13.613,1.722 -18.902,2.569 -31.941,5.115 -4.675,0.913 -9.965,1.883 -11.756,2.156 -3.257,0.495 -3.257,0.495 -2.538,12.635 1.366,23.069 0.884,38.953 -1.351,44.512 -0.745,1.855 -1.355,4.682 -1.355,6.283 0,1.601 -1.131,5.143 -2.513,7.871 -1.383,2.728 -2.479,5.076 -2.436,5.217 0.097,0.318 -0.924,3.205 -2.699,7.629 -0.743,1.855 -1.352,4.007 -1.352,4.782 0,0.776 -0.733,3.083 -1.628,5.128 -0.895,2.045 -1.768,4.764 -1.94,6.043 -0.323,2.409 -0.518,2.713 -6.554,10.175 -2.02,2.498 -3.94,6.192 -4.314,8.303 -0.371,2.091 -1.325,4.052 -2.119,4.357 -0.795,0.304 -1.445,1.199 -1.445,1.987 0,2.843 -4.024,9.233 -7.227,11.478 -1.8,1.261 -3.861,3.099 -4.58,4.084 -0.718,0.985 -1.846,1.791 -2.505,1.791 -0.66,0 -2.547,1.661 -4.194,3.691 -2.625,3.236 -10.143,11.815 -15.607,17.809 -1.003,1.1 -3.75,4.25 -6.105,6.999 -8.283,9.67 -27.299,25.501 -30.632,25.501 -0.441,0 -1.858,1.125 -3.15,2.5 -1.292,1.375 -2.74,2.5 -3.218,2.5 -0.478,0 -2.036,1.082 -3.462,2.404 -2.919,2.707 -2.473,2.466 -18.82,10.174 -10.638,5.017 -20.453,8.088 -38.238,11.966 -1.23,0.268 -3.705,1.858 -5.5,3.533 -10.679001,9.969 -13.187001,11.733 -19.127001,13.451 -3.374,0.976 -8.835,2.593 -12.135,3.593 -3.3,1 -7.125,2.036 -8.5,2.304 -2.284,0.444 -5.746,1.413 -16.25,4.549 -2.063,0.616 -3.75,1.477 -3.75,1.912 0,0.436 -1.012,1.258 -2.25,1.827 -4.463,2.052 -19.715,16.299 -20.407,19.063 -0.375,1.498 -1.776,4.906 -3.115,7.574 -2.725,5.431 -2.533,12.827 0.511,19.65 6.64,14.881 6.895,15.228 21.37,29 7.804,7.425 18.141,17.325 22.971,22 20.581,19.921 28.497,25.696 48.920001,35.689 33.817,16.545 48.345,19.013 74.784,12.701 3.456,-0.825 7.731,-1.689 9.5,-1.92 4.842,-0.631 13.451,-2.871 14.3,-3.721 0.412,-0.412 1.574,-0.749 2.583,-0.749 1.008,0 1.835,-0.337 1.837,-0.75 0.002,-0.413 2.139,-1.618 4.75,-2.679 2.61,-1.062 6.395,-3.008 8.41,-4.326 2.015,-1.318 4.314,-2.492 5.109,-2.609 0.795,-0.117 2.216,-0.982 3.158,-1.924 0.941,-0.942 2.134,-1.712 2.651,-1.712 0.516,0 3.179,-1.575 5.918,-3.5 2.739,-1.925 5.228,-3.5 5.532,-3.5 0.303,0 1.44,-0.828 2.527,-1.84 1.086,-1.012 3.198,-2.475 4.694,-3.25 1.496,-0.776 3.625,-2.159 4.733,-3.076 1.108,-0.916 5.839,-4.61 10.514,-8.209 12.618,-9.714 14,-10.92 14,-12.209 0,-0.648 1.516,-2.335 3.369,-3.748 12.724,-9.705 38.488,-38.469 44.698,-49.903 16.678,-30.704 21.814,-46.343 24.063,-73.265 1.01,-12.1 2.52,-25.42 3.354,-29.6 0.834,-4.18 1.516,-12.647 1.516,-18.816 0,-6.168 0.426,-12.012 0.948,-12.986 0.623,-1.164 0.499,-3.702 -0.362,-7.406 -0.721,-3.099 -1.072,-5.872 -0.781,-6.163 0.29,-0.291 0.003,-0.529 -0.638,-0.529 -0.716,0 -1.167,-1.738 -1.167,-4.5 0,-2.475 -0.41,-4.5 -0.911,-4.5 -0.501,0 -1.123,-2.587 -1.383,-5.75 -0.259,-3.162 -0.752,-8.225 -1.096,-11.25 -0.663,-5.832 -1.782,-33.771 -1.923,-48 -0.239,-24.275 3.189,-40.976 11.872,-57.835 5.574,-10.822 9.441,-21.319 9.441,-25.624 0,-2.648 -9.031,-3.962 -11.55,-1.681 m 1318.05094,299.702 c -13.077,1.454 -34.525,6.41 -40.343,9.323 -2.011,1.007 -4.936,2.139 -6.499,2.515 -9.014,2.17 -32.152,15.372 -35.264,20.121 -0.88,1.344 -3.242,3.444 -5.247,4.666 -2.006,1.222 -4.235,3.03 -4.954,4.017 -0.718,0.988 -1.913,1.796 -2.654,1.796 -0.742,0 -2.748,2.363 -4.459,5.25 -1.711,2.887 -4.904,7.725 -7.094,10.75 -2.191,3.025 -3.983,6.114 -3.984,6.865 0,0.751 -1.985,7.951 -4.409,16 -10.139,33.665 -13.075,67.029 -6.28,71.349 3.253,2.069 12.687,-2.878 12.687,-6.652 0,-1.883 17.906,-30.69 21.016,-33.811 1.506,-1.512 4.69,-5.337 7.073,-8.5 7.354,-9.758 17.225,-18.965 21.803,-20.337 2.259,-0.677 4.108,-1.676 4.108,-2.221 0,-1.519 11.057,-11.405 15,-13.412 1.925,-0.98 4.625,-2.984 6,-4.454 3.107,-3.323 17.663,-12.153 18.837,-11.427 0.475,0.293 9.142,-2.615 19.26,-6.464 25.677,-9.766 36.088,-10.418 63.403,-3.97 2.2,0.52 5.35,1.242 7,1.605 29.378,6.467 39.171,11.828 46.446,25.429 1.324,2.475 2.891,5.395 3.481,6.488 0.59,1.093 1.778,2.523 2.639,3.178 0.862,0.654 2.178,3.135 2.925,5.512 0.748,2.377 3.581,9.047 6.297,14.822 5.114,10.877 7.342,16.361 8.734,21.5 0.447,1.65 1.781,6.15 2.965,10 1.183,3.85 2.536,11.8 3.005,17.666 1.561,19.525 3.821,29.304 11.98,51.834 1.693,4.675 4.171,11.65 5.507,15.5 5.914,17.045 6.078,17.309 21.271,34.114 1.237,1.369 2.25,3.141 2.25,3.938 0,0.796 0.469,1.448 1.043,1.448 0.573,0 3.611,1.902 6.75,4.226 5.825,4.313 20.375,9.901 30.707,11.793 2.75,0.504 6.522,1.215 8.383,1.581 4.406,0.867 4.315,0.363 -4.142,-23.1 -3.569,-9.9 -7.721,-21.825 -9.226,-26.5 -1.506,-4.675 -4.518,-12.251 -6.696,-16.836 -2.177,-4.584 -4.371,-10.884 -4.877,-14 -1.944,-11.976 -15.202,-58.749 -19.544,-68.948 -0.769,-1.806 -1.398,-4.376 -1.398,-5.71 0,-2.156 -8.159,-18.776 -22.657,-46.15 -9.538,-18.01 -30.886,-44.356 -35.941,-44.356 -0.648,0 -3.515,-1.608 -6.373,-3.574 -2.857,-1.965 -7.021,-4.217 -9.252,-5.005 -2.232,-0.787 -5.513,-2.331 -7.291,-3.43 -15.185,-9.385 -33.235,-13.087 -67.986,-13.946 -15.95,-0.394 -29.675,-0.964 -30.5,-1.267 -0.825,-0.303 -6.9,0.05 -13.5,0.784 m 659.801,879.40599 c -2.86,0.944 -6.738,2.89 -8.617,4.324 -2.16,1.647 -4.662,2.596 -6.801,2.578 -9.448,-0.079 -12.883,0.349 -12.883,1.606 0,1.739 -2.256,2.526 -5.154,1.797 -2.374,-0.597 -7.867,-5.259 -6.232,-5.29 0.487,-0.01 -0.582,-0.957 -2.377,-2.106 -7.118,-4.559 -17.32,6.894 -13.75,15.437 1.702,4.074 4.421,4.777 13.013,3.363 27.87,-4.585 72.531,0.955 88.73,11.008 2.052,1.273 3.945,2.315 4.209,2.315 3.416,0 32.103,16.007 34.372,19.179 4.748,6.64 13.137,5.566 13.174,-1.686 0.01,-1.653 0.412,-4.391 0.898,-6.084 1.384,-4.828 -2.956,-10.607 -8.956,-11.925 -1.597,-0.351 -3.161,-1.054 -3.475,-1.562 -0.315,-0.509 -4.707,-3.624 -9.762,-6.922 -5.054,-3.299 -9.734,-6.448 -10.398,-6.999 -0.664,-0.551 -1.592,-1.001 -2.061,-1.001 -0.47,0 -1.751,-0.836 -2.848,-1.858 -1.917,-1.785 -4.18,-2.44 -12.883,-3.726 -2.2,-0.325 -6.833,-1.901 -10.295,-3.503 -3.462,-1.602 -6.492,-2.913 -6.734,-2.913 -0.242,0 -3.159,-1.317 -6.482,-2.927 -3.875,-1.877 -7.917,-3.01 -11.266,-3.158 -2.873,-0.127 -5.898,-0.554 -6.723,-0.948 -0.825,-0.394 -3.84,0.056 -6.699,1.001 m 111.928,237.701 c -1.608,0.647 -9.755,8.115 -16.996,15.581 -3.068,3.162 -6.075,5.75 -6.683,5.75 -0.608,0 -1.803,0.787 -2.656,1.75 -2.497,2.818 -10.817,8.353 -18.894,12.567 -4.125,2.153 -8.21,4.537 -9.079,5.298 -0.868,0.762 -2.112,1.385 -2.763,1.385 -0.652,0 -1.967,0.45 -2.922,1 -0.955,0.549 -2.861,1.448 -4.236,1.997 -1.375,0.549 -3.175,1.404 -4,1.9 -3.373,2.027 -16.634,8.103 -17.684,8.103 -1.677,0 -11.166,4.335 -40.863,18.668 -6.077,2.933 -11.986,5.332 -13.132,5.332 -1.245,0 -3.207,1.509 -4.875,3.75 -4.032,5.415 -5.35,6.506 -11.155,9.235 -5.532,2.6 -5.374,3.972 0.459,4 1.787,0.01 3.25,0.41 3.25,0.894 0,1.755 5.693,3.356 7.844,2.205 1.113,-0.596 5.092,-1.093 8.84,-1.104 7.18,-0.021 13.644,-0.869 26.816,-3.515 10.861,-2.183 23.452,-2.892 29.227,-1.646 2.625,0.566 7.698,1.534 11.273,2.151 3.575,0.617 8.75,1.541 11.5,2.054 2.75,0.513 7.89,1.188 11.422,1.501 3.531,0.313 6.798,0.802 7.26,1.087 1.552,0.96 24.187,0.419 25.208,-0.602 0.556,-0.556 4.459,-1.01 8.674,-1.01 14.505,0 19.394,-1.857 29.921,-11.367 2.144,-1.938 3.846,-4.335 3.781,-5.328 -0.065,-0.993 0.207,-3.5 0.606,-5.572 0.977,-5.078 0.057,-6.216 -3.049,-3.773 -4.503,3.543 -6.635,0.732 -9.452,-12.46 -2.827,-13.244 2.97,-20.101 7.224,-8.544 2.789,7.578 5.944,5.664 5.143,-3.12 -0.521,-5.713 -2.855,-8.148 -10.204,-10.646 -5.624,-1.911 -7.851,-5.92 -7.99,-14.381 -0.024,-1.48 -0.525,-2.988 -1.112,-3.351 -0.588,-0.363 -0.843,-1.248 -0.567,-1.966 0.721,-1.879 -2.064,-13.103 -3.975,-16.019 -1.55,-2.366 -3.41,-2.911 -6.161,-1.804 m 28.771,94.371 c -2.475,2.175 -5.02,3.956 -5.655,3.957 -0.636,0 -3.083,1.614 -5.44,3.582 -2.356,1.969 -6.336,4.673 -8.844,6.009 -5.793,3.086 -7.932,4.48 -10.223,6.662 -1.011,0.963 -2.443,1.75 -3.183,1.75 -0.74,0 -2.162,0.903 -3.161,2.007 -0.999,1.104 -2.306,1.95 -2.905,1.881 -11.049,-1.271 -14.691,10.449 -6.559,21.112 2.726,3.575 4.96,7.067 4.963,7.761 0,0.693 0.858,3.168 1.899,5.5 1.04,2.331 2.151,5.026 2.468,5.989 0.441,1.337 1.705,1.756 5.359,1.774 10.084,0.052 18.118,3.16 14.675,5.677 -2.659,1.945 -0.613,3.318 5.957,3.996 3.099,0.32 6.143,1.194 6.765,1.942 3.813,4.595 10.192,0.07 15.79,-11.2 4.276,-8.611 12.094,-13.958 12.094,-8.273 0,1.669 1.821,-0.1 3.437,-3.34 2.503,-5.018 -1.782,-17.787 -4.355,-12.978 -0.634,1.183 -0.799,2.167 -0.367,2.185 0.432,0.019 -0.292,0.93 -1.608,2.026 -2.069,1.723 -2.61,1.804 -4,0.597 -0.884,-0.767 -2.186,-1.186 -2.894,-0.93 -1.477,0.534 -1.071,-3.254 0.705,-6.573 0.595,-1.112 1.082,-2.903 1.082,-3.98 0,-1.078 0.675,-2.218 1.5,-2.535 1.637,-0.628 2.051,-4.18 0.591,-5.082 -0.499,-0.308 -0.955,-5.262 -1.011,-11.007 -0.124,-12.507 -0.352,-13.235 -4.414,-14.103 -4.366,-0.933 -5.666,-2.211 -5.666,-5.568 0,-3.856 -1.59,-3.592 -7,1.162"
     stroke="none"
     fill="#3d4c63"
     fill-rule="evenodd" />
</svg>
