<svg width="24" height="24" viewBox="0 0 24 24" fill="none" xmlns="http://www.w3.org/2000/svg">
<rect width="24" height="24" fill="#0085FF"/>
<path fill-rule="evenodd" clip-rule="evenodd" d="M13.2295 17.1916C14.8536 17.0318 16.265 16.5231 17.2947 15.4894L16.68 14.6447C16.6581 14.6145 16.6456 14.5794 16.6438 14.5432C16.6419 14.507 16.6508 14.471 16.6695 14.4391C16.6881 14.4072 16.7159 14.3804 16.7498 14.3618C16.7837 14.3431 16.8224 14.3333 16.862 14.3332H18.4605C18.8614 14.3332 19.1224 14.6984 18.9416 15.0087C17.4181 17.6501 15.0827 19 12.0001 19C8.91618 19 6.58068 17.6501 5.0572 15.0087C4.87902 14.6984 5.13866 14.3332 5.5383 14.3332H7.13815C7.17768 14.3333 7.21644 14.3431 7.25033 14.3618C7.28422 14.3804 7.31197 14.4072 7.33064 14.4391C7.3493 14.471 7.35818 14.507 7.35633 14.5432C7.35449 14.5794 7.34198 14.6145 7.32015 14.6447L6.70541 15.4894C7.73634 16.5231 9.14909 17.0318 10.7718 17.1928L11.062 12.9366L9.00782 12.4349C8.95355 12.4218 8.90553 12.3926 8.87124 12.3519C8.83694 12.3112 8.81829 12.2612 8.81818 12.2098V11.7897C8.81821 11.7385 8.83668 11.6886 8.87073 11.6479C8.90478 11.6072 8.95251 11.5779 9.00654 11.5646L11.1906 11.0302L11.2899 9.57417C10.7012 9.4174 10.1941 9.07119 9.86158 8.59914C9.52909 8.12709 9.39358 7.56091 9.47995 7.00462C9.56632 6.44833 9.86877 5.93929 10.3317 5.57103C10.7947 5.20276 11.3871 5 12.0001 5C12.613 5 13.2054 5.20276 13.6684 5.57103C14.1313 5.93929 14.4338 6.44833 14.5202 7.00462C14.6065 7.56091 14.471 8.12709 14.1385 8.59914C13.806 9.07119 13.2989 9.4174 12.7102 9.57417L12.8095 11.0302L14.9936 11.5646C15.0476 11.5779 15.0953 11.6072 15.1294 11.6479C15.1634 11.6886 15.1819 11.7385 15.1819 11.7897V12.2098C15.1819 12.2611 15.1634 12.3109 15.1294 12.3516C15.0953 12.3923 15.0476 12.4216 14.9936 12.4349L12.9393 12.9366L13.2295 17.1928V17.1916ZM12.0001 8.49963C12.3376 8.49963 12.6613 8.37671 12.9 8.15791C13.1387 7.93911 13.2728 7.64236 13.2728 7.33293C13.2728 7.0235 13.1387 6.72674 12.9 6.50794C12.6613 6.28914 12.3376 6.16622 12.0001 6.16622C11.6625 6.16622 11.3388 6.28914 11.1001 6.50794C10.8614 6.72674 10.7273 7.0235 10.7273 7.33293C10.7273 7.64236 10.8614 7.93911 11.1001 8.15791C11.3388 8.37671 11.6625 8.49963 12.0001 8.49963Z" fill="white"/>
</svg>
