<svg width="40" height="48" viewBox="0 0 40 48" fill="none" xmlns="http://www.w3.org/2000/svg">
<g clip-path="url(#clip0_12_16)">
<path d="M17.5376 45.5833L19.8233 47.869L33.8563 33.837C37.4359 30.2494 39.6522 25.2961 39.6522 19.8255C39.6522 8.87741 30.7781 0 19.8255 0C8.87741 0 0 8.87741 0 19.8255C0 25.2916 2.22077 30.2562 5.78903 33.8268C6.09263 34.1292 6.49403 34.3077 6.94774 34.3077C7.83468 34.3077 8.55789 33.5857 8.55789 32.6976C8.55789 32.2462 8.36458 31.8323 8.06325 31.5309C5.08288 28.5505 3.22257 24.3956 3.22257 19.8255C3.22257 10.6706 10.6706 3.22144 19.8255 3.22144C28.9804 3.22144 36.4296 10.6706 36.4296 19.8255C36.4296 24.4047 34.5693 28.554 31.5605 31.5616L17.5376 45.5833Z" fill="white"/>
<path d="M29.807 23.1741C29.5467 23.2548 29.3022 23.314 29.068 23.3663L28.6154 24.6353C28.9963 24.5784 29.3898 24.4966 29.807 24.3692C30.2551 24.2338 30.2801 24.2338 30.951 23.9974V22.8091C30.2642 23.0376 30.2551 23.0376 29.807 23.1741ZM13.1404 18.6189H17.8526V14.4184H13.1404V18.6189ZM19.0329 18.6189H25.0903L23.2221 14.4218H19.0329V18.6189ZM12.9574 23.107C12.2251 23.3447 11.5303 23.5983 10.7741 23.8757V22.6874V18.6189H11.9567V14.4218H10.7741V12.284H16.4904L17.673 11.1003H20.5385L21.721 12.284H22.4568C23.097 12.284 23.6781 12.6593 23.9407 13.2403L26.373 18.6189H29.707L27.4225 24.7263C26.9404 24.733 26.464 24.7092 25.9659 24.6763C25.8909 24.6728 25.8147 24.6659 25.7384 24.6603C25.4507 24.6296 25.163 24.5898 24.8765 24.5386L24.7105 24.5068C22.9525 24.1634 21.2571 23.4402 19.5287 23.0285C17.2272 22.4703 15.2418 22.3849 12.9574 23.107ZM29.807 25.5859C30.2551 25.4495 30.2642 25.4495 30.951 25.2197V26.4092C30.2801 26.6434 30.2551 26.6434 29.807 26.7799C29.0724 27.0039 28.4084 27.0994 27.7591 27.1301C27.161 27.1574 26.5754 27.1301 25.9659 27.0881C25.8909 27.0835 25.8147 27.0778 25.7384 27.0721C25.4507 27.0414 25.163 27.0016 24.8765 26.9481L24.7105 26.9163C22.9525 26.5729 21.2571 25.8508 19.5287 25.4403C17.2272 24.8821 15.2418 24.7957 12.9574 25.5199C12.2251 25.7565 11.5303 26.01 10.7741 26.2875V25.0992C11.5303 24.8217 12.2251 24.5614 12.9574 24.3248C14.6278 23.795 16.164 23.7051 17.7605 23.911C18.3393 23.9849 18.9261 24.1008 19.5287 24.2464C21.405 24.6921 23.2402 25.5052 25.1609 25.8031L25.3291 25.827C25.5394 25.8554 25.7532 25.8805 25.9659 25.8952C26.0534 25.9009 26.1354 25.9054 26.2183 25.9123C27.4555 25.9896 28.3958 26.0168 29.807 25.5859Z" fill="white"/>
</g>
<defs>
<clipPath id="clip0_12_16">
<rect width="39.6522" height="48" fill="white"/>
</clipPath>
</defs>
</svg>
