<svg width="253" height="40" viewBox="0 0 253 40" fill="none" xmlns="http://www.w3.org/2000/svg">
<g clip-path="url(#clip0_13_30)">
<path d="M14.671 37.9861L16.583 39.8908L28.3222 28.1975C31.3167 25.2078 33.1707 21.0801 33.1707 16.5212C33.1707 7.39784 25.7472 0 16.5848 0C7.42633 0 0 7.39784 0 16.5212C0 21.0764 1.85777 25.2135 4.84277 28.189C5.09674 28.441 5.43254 28.5898 5.81208 28.5898C6.55405 28.5898 7.15904 27.9881 7.15904 27.248C7.15904 26.8718 6.99733 26.5269 6.74525 26.2758C4.25204 23.7921 2.69582 20.3297 2.69582 16.5212C2.69582 8.89218 8.92642 2.68453 16.5848 2.68453C24.2434 2.68453 30.4749 8.89218 30.4749 16.5212C30.4749 20.3372 28.9187 23.795 26.4017 26.3013L14.671 37.9861Z" fill="white"/>
<path d="M24.9349 19.3117C24.7171 19.379 24.5125 19.4283 24.3166 19.4719L23.938 20.5294C24.2566 20.482 24.5858 20.4138 24.9349 20.3077C25.3097 20.1949 25.3306 20.1949 25.8918 19.9978V19.0076C25.3173 19.198 25.3097 19.198 24.9349 19.3117ZM10.9925 15.5157H14.9345V12.0153H10.9925V15.5157ZM15.9219 15.5157H20.9891L19.4263 12.0182H15.9219V15.5157ZM10.8394 19.2558C10.2268 19.4539 9.6456 19.6652 9.013 19.8964V18.9062V15.5157H10.0023V12.0182H9.013V10.2367H13.7949L14.7842 9.25026H17.1813L18.1706 10.2367H18.7861C19.3216 10.2367 19.8077 10.5494 20.0274 11.0336L22.0621 15.5157H24.8512L22.9401 20.6052C22.5368 20.6109 22.1382 20.591 21.7216 20.5636C21.6588 20.5607 21.5951 20.555 21.5313 20.5503C21.2906 20.5247 21.05 20.4915 20.8103 20.4489L20.6714 20.4223C19.2008 20.1362 17.7825 19.5335 16.3366 19.1904C14.4113 18.7252 12.7504 18.6541 10.8394 19.2558ZM24.9349 21.3216C25.3097 21.2079 25.3173 21.2079 25.8918 21.0164V22.0077C25.3306 22.2029 25.3097 22.2029 24.9349 22.3166C24.3203 22.5032 23.7648 22.5829 23.2217 22.6084C22.7213 22.6311 22.2314 22.6084 21.7216 22.5734C21.6588 22.5696 21.5951 22.5649 21.5313 22.5601C21.2906 22.5345 21.05 22.5013 20.8103 22.4568L20.6714 22.4303C19.2008 22.1441 17.7825 21.5423 16.3366 21.2003C14.4113 20.735 12.7504 20.663 10.8394 21.2666C10.2268 21.4637 9.6456 21.675 9.013 21.9063V20.916C9.6456 20.6848 10.2268 20.4678 10.8394 20.2707C12.2368 19.8291 13.5219 19.7543 14.8574 19.9258C15.3416 19.9874 15.8325 20.084 16.3366 20.2053C17.9062 20.5768 19.4414 21.2543 21.0481 21.5026L21.1888 21.5225C21.3648 21.5462 21.5437 21.567 21.7216 21.5793C21.7948 21.5841 21.8633 21.5878 21.9327 21.5936C22.9677 21.658 23.7543 21.6807 24.9349 21.3216Z" fill="white"/>
</g>
<path d="M53.9707 20.288H57.0667C58.0427 20.288 58.8587 20.024 59.5147 19.496C60.1867 18.968 60.5227 18.248 60.5227 17.336C60.5227 16.424 60.1867 15.704 59.5147 15.176C58.8587 14.648 58.0427 14.384 57.0667 14.384H53.9707V20.288ZM51.4987 29V12.2H56.9947C58.9147 12.2 60.4027 12.704 61.4587 13.712C62.5307 14.704 63.0667 15.912 63.0667 17.336C63.0667 18.76 62.5307 19.976 61.4587 20.984C60.4027 21.976 58.9147 22.472 56.9947 22.472H53.9707V29H51.4987ZM70.5956 29.288C68.9796 29.288 67.5716 28.728 66.3716 27.608C65.1876 26.472 64.5956 24.968 64.5956 23.096C64.5956 21.256 65.1556 19.76 66.2756 18.608C67.3956 17.44 68.7396 16.856 70.3076 16.856C71.8436 16.856 73.1796 17.4 74.3156 18.488C75.4516 19.56 76.0196 21.232 76.0196 23.504V23.84H67.0436C67.1716 24.896 67.5956 25.72 68.3156 26.312C69.0516 26.888 69.8836 27.176 70.8116 27.176C71.3236 27.176 71.8356 27.088 72.3476 26.912C72.8756 26.72 73.3716 26.424 73.8356 26.024L75.3236 27.512C74.7316 28.088 74.0196 28.528 73.1876 28.832C72.3716 29.136 71.5076 29.288 70.5956 29.288ZM67.0676 22.064H73.4996C73.4356 21.264 73.1156 20.544 72.5396 19.904C71.9796 19.264 71.2596 18.944 70.3796 18.944C69.4516 18.944 68.6916 19.256 68.0996 19.88C67.5236 20.504 67.1796 21.232 67.0676 22.064ZM86.178 29V23.576H86.13C85.826 23.944 85.378 24.272 84.786 24.56C84.21 24.848 83.57 24.992 82.866 24.992C81.81 24.992 80.858 24.632 80.01 23.912C79.178 23.176 78.762 22.096 78.762 20.672V17.144H81.114V20.216C81.114 21.144 81.33 21.824 81.762 22.256C82.194 22.672 82.754 22.88 83.442 22.88C84.018 22.88 84.546 22.744 85.026 22.472C85.522 22.184 85.906 21.864 86.178 21.512V17.144H88.53V29H86.178ZM91.9847 29V17.144H94.3367V21.872H99.4487V17.144H101.801V29H99.4487V23.816H94.3367V29H91.9847ZM110.554 29.288C108.922 29.288 107.53 28.704 106.378 27.536C105.226 26.368 104.65 24.88 104.65 23.072C104.65 21.264 105.226 19.776 106.378 18.608C107.53 17.44 108.922 16.856 110.554 16.856C112.186 16.856 113.578 17.44 114.73 18.608C115.882 19.776 116.458 21.264 116.458 23.072C116.458 24.88 115.882 26.368 114.73 27.536C113.578 28.704 112.186 29.288 110.554 29.288ZM110.554 27.2C111.594 27.2 112.442 26.816 113.098 26.048C113.754 25.264 114.082 24.272 114.082 23.072C114.082 21.888 113.754 20.904 113.098 20.12C112.442 19.336 111.594 18.944 110.554 18.944C109.514 18.944 108.666 19.336 108.01 20.12C107.354 20.904 107.026 21.888 107.026 23.072C107.026 24.272 107.354 25.264 108.01 26.048C108.666 26.816 109.514 27.2 110.554 27.2ZM119.313 29V17.144H121.665V25.256H121.713L127.233 17.144H129.369V29H127.017V20.912H126.969L121.449 29H119.313ZM124.401 15.608C123.377 15.608 122.529 15.384 121.857 14.936C121.201 14.472 120.753 14.072 120.513 13.736L121.857 12.416C122.065 12.656 122.401 12.92 122.865 13.208C123.329 13.48 123.841 13.616 124.401 13.616C124.961 13.616 125.473 13.48 125.937 13.208C126.401 12.92 126.737 12.656 126.945 12.416L128.289 13.736C128.049 14.072 127.593 14.472 126.921 14.936C126.265 15.384 125.425 15.608 124.401 15.608ZM140.794 29V19.088H137.17V17.144H147.058L146.362 19.088H143.146V29H140.794ZM151.358 23.048C151.358 24.232 151.686 25.224 152.342 26.024C153.014 26.808 153.878 27.2 154.934 27.2C155.99 27.2 156.846 26.808 157.502 26.024C158.174 25.224 158.51 24.232 158.51 23.048C158.51 21.864 158.174 20.888 157.502 20.12C156.846 19.336 155.99 18.944 154.934 18.944C153.878 18.944 153.014 19.336 152.342 20.12C151.686 20.888 151.358 21.864 151.358 23.048ZM151.43 27.2V33.44H149.078V17.144H151.43V18.944H151.478C151.846 18.352 152.366 17.856 153.038 17.456C153.726 17.056 154.502 16.856 155.366 16.856C156.95 16.856 158.27 17.44 159.326 18.608C160.382 19.776 160.91 21.264 160.91 23.072C160.91 24.88 160.382 26.368 159.326 27.536C158.27 28.704 156.95 29.288 155.366 29.288C154.502 29.288 153.726 29.088 153.038 28.688C152.366 28.288 151.846 27.792 151.478 27.2H151.43ZM167.686 27.32C168.486 27.32 169.182 27.048 169.774 26.504C170.382 25.944 170.686 25.184 170.686 24.224V23.624C170.334 23.576 169.966 23.536 169.582 23.504C169.198 23.472 168.87 23.456 168.598 23.456C167.574 23.456 166.79 23.64 166.246 24.008C165.702 24.36 165.43 24.84 165.43 25.448C165.43 25.928 165.622 26.36 166.006 26.744C166.39 27.128 166.95 27.32 167.686 27.32ZM167.206 29.288C166.006 29.288 165.014 28.92 164.23 28.184C163.446 27.432 163.054 26.52 163.054 25.448C163.054 24.472 163.454 23.584 164.254 22.784C165.07 21.984 166.406 21.584 168.262 21.584C168.598 21.584 168.982 21.608 169.414 21.656C169.862 21.688 170.286 21.736 170.686 21.8V21.176C170.686 20.44 170.446 19.88 169.966 19.496C169.486 19.112 168.878 18.92 168.142 18.92C167.534 18.92 166.95 19.032 166.39 19.256C165.83 19.48 165.374 19.712 165.022 19.952L163.534 18.464C164.11 17.984 164.798 17.6 165.598 17.312C166.414 17.008 167.278 16.856 168.19 16.856C169.678 16.856 170.854 17.256 171.718 18.056C172.598 18.856 173.038 19.944 173.038 21.32V29H170.734V27.704H170.686C170.334 28.184 169.854 28.568 169.246 28.856C168.638 29.144 167.958 29.288 167.206 29.288ZM176.383 29V17.144H178.735V21.872H183.847V17.144H186.199V29H183.847V23.816H178.735V29H176.383ZM194.905 29.288C193.257 29.288 191.865 28.704 190.729 27.536C189.609 26.368 189.049 24.88 189.049 23.072C189.049 21.264 189.609 19.776 190.729 18.608C191.865 17.44 193.257 16.856 194.905 16.856C195.817 16.856 196.625 17.024 197.329 17.36C198.049 17.68 198.633 18.064 199.081 18.512L197.617 19.976C197.345 19.72 196.985 19.48 196.537 19.256C196.105 19.032 195.577 18.92 194.953 18.92C193.897 18.92 193.041 19.32 192.385 20.12C191.729 20.92 191.401 21.904 191.401 23.072C191.401 24.256 191.729 25.248 192.385 26.048C193.041 26.848 193.897 27.248 194.953 27.248C195.577 27.248 196.105 27.136 196.537 26.912C196.985 26.672 197.345 26.424 197.617 26.168L199.081 27.632C198.633 28.08 198.049 28.472 197.329 28.808C196.625 29.128 195.817 29.288 194.905 29.288ZM201.508 29V17.144H211.084V29H208.732V19.088H203.86V29H201.508ZM219.843 29.288C218.211 29.288 216.819 28.704 215.667 27.536C214.515 26.368 213.939 24.88 213.939 23.072C213.939 21.264 214.515 19.776 215.667 18.608C216.819 17.44 218.211 16.856 219.843 16.856C221.475 16.856 222.867 17.44 224.019 18.608C225.171 19.776 225.747 21.264 225.747 23.072C225.747 24.88 225.171 26.368 224.019 27.536C222.867 28.704 221.475 29.288 219.843 29.288ZM219.843 27.2C220.883 27.2 221.731 26.816 222.387 26.048C223.043 25.264 223.371 24.272 223.371 23.072C223.371 21.888 223.043 20.904 222.387 20.12C221.731 19.336 220.883 18.944 219.843 18.944C218.803 18.944 217.955 19.336 217.299 20.12C216.643 20.904 216.315 21.888 216.315 23.072C216.315 24.272 216.643 25.264 217.299 26.048C217.955 26.816 218.803 27.2 219.843 27.2ZM230.882 23.048C230.882 24.232 231.21 25.224 231.866 26.024C232.538 26.808 233.402 27.2 234.458 27.2C235.514 27.2 236.37 26.808 237.026 26.024C237.698 25.224 238.034 24.232 238.034 23.048C238.034 21.864 237.698 20.888 237.026 20.12C236.37 19.336 235.514 18.944 234.458 18.944C233.402 18.944 232.538 19.336 231.866 20.12C231.21 20.888 230.882 21.864 230.882 23.048ZM230.954 27.2V33.44H228.602V17.144H230.954V18.944H231.002C231.37 18.352 231.89 17.856 232.562 17.456C233.25 17.056 234.026 16.856 234.89 16.856C236.474 16.856 237.794 17.44 238.85 18.608C239.906 19.776 240.434 21.264 240.434 23.072C240.434 24.88 239.906 26.368 238.85 27.536C237.794 28.704 236.474 29.288 234.89 29.288C234.026 29.288 233.25 29.088 232.562 28.688C231.89 28.288 231.37 27.792 231.002 27.2H230.954ZM245.607 29V19.088H241.983V17.144H251.871L251.175 19.088H247.959V29H245.607Z" fill="white"/>
<defs>
<clipPath id="clip0_13_30">
<rect width="33.1707" height="40" fill="white"/>
</clipPath>
</defs>
</svg>
