<svg width="506" height="48" viewBox="0 0 506 48" fill="none" xmlns="http://www.w3.org/2000/svg">
<g clip-path="url(#clip0_4_3)">
<path d="M17.5376 45.5833L19.8233 47.869L33.8563 33.837C37.4359 30.2494 39.6522 25.2961 39.6522 19.8255C39.6522 8.87741 30.7781 0 19.8255 0C8.87741 0 0 8.87741 0 19.8255C0 25.2916 2.22077 30.2562 5.78903 33.8268C6.09263 34.1292 6.49403 34.3077 6.94774 34.3077C7.83468 34.3077 8.55789 33.5857 8.55789 32.6976C8.55789 32.2462 8.36458 31.8323 8.06325 31.5309C5.08288 28.5505 3.22257 24.3956 3.22257 19.8255C3.22257 10.6706 10.6706 3.22144 19.8255 3.22144C28.9804 3.22144 36.4296 10.6706 36.4296 19.8255C36.4296 24.4047 34.5693 28.554 31.5605 31.5616L17.5376 45.5833Z" fill="white"/>
<path d="M29.807 23.1741C29.5467 23.2549 29.3022 23.314 29.068 23.3663L28.6154 24.6353C28.9963 24.5784 29.3898 24.4966 29.807 24.3692C30.2551 24.2338 30.2801 24.2338 30.951 23.9974V22.8091C30.2642 23.0376 30.2551 23.0376 29.807 23.1741ZM13.1404 18.6189H17.8526V14.4184H13.1404V18.6189ZM19.0329 18.6189H25.0903L23.2221 14.4218H19.0329V18.6189ZM12.9574 23.107C12.2251 23.3447 11.5303 23.5983 10.7741 23.8757V22.6874V18.6189H11.9567V14.4218H10.7741V12.284H16.4904L17.673 11.1003H20.5385L21.721 12.284H22.4568C23.097 12.284 23.6781 12.6593 23.9407 13.2403L26.373 18.6189H29.707L27.4225 24.7263C26.9404 24.733 26.464 24.7093 25.9659 24.6763C25.8909 24.6728 25.8147 24.6659 25.7384 24.6603C25.4507 24.6296 25.163 24.5898 24.8765 24.5386L24.7105 24.5068C22.9525 24.1634 21.2571 23.4402 19.5287 23.0285C17.2272 22.4703 15.2418 22.3849 12.9574 23.107ZM29.807 25.5859C30.2551 25.4495 30.2642 25.4495 30.951 25.2197V26.4092C30.2801 26.6434 30.2551 26.6434 29.807 26.7799C29.0724 27.0039 28.4084 27.0994 27.7591 27.1301C27.161 27.1574 26.5754 27.1301 25.9659 27.0881C25.8909 27.0835 25.8147 27.0778 25.7384 27.0721C25.4507 27.0414 25.163 27.0016 24.8765 26.9481L24.7105 26.9163C22.9525 26.5729 21.2571 25.8508 19.5287 25.4403C17.2272 24.8821 15.2418 24.7957 12.9574 25.5199C12.2251 25.7565 11.5303 26.0101 10.7741 26.2875V25.0992C11.5303 24.8217 12.2251 24.5614 12.9574 24.3248C14.6278 23.795 16.164 23.7051 17.7605 23.911C18.3393 23.9849 18.9261 24.1008 19.5287 24.2464C21.405 24.6921 23.2402 25.5052 25.1609 25.8031L25.3291 25.827C25.5394 25.8554 25.7532 25.8805 25.9659 25.8952C26.0534 25.9009 26.1354 25.9054 26.2183 25.9123C27.4555 25.9896 28.3958 26.0168 29.807 25.5859Z" fill="white"/>
</g>
<path d="M62.8522 24.932H67.4962C68.9602 24.932 70.1842 24.536 71.1682 23.744C72.1762 22.952 72.6802 21.872 72.6802 20.504C72.6802 19.136 72.1762 18.056 71.1682 17.264C70.1842 16.472 68.9602 16.076 67.4962 16.076H62.8522V24.932ZM59.1442 38V12.8H67.3882C70.2682 12.8 72.5002 13.556 74.0842 15.068C75.6922 16.556 76.4962 18.368 76.4962 20.504C76.4962 22.64 75.6922 24.464 74.0842 25.976C72.5002 27.464 70.2682 28.208 67.3882 28.208H62.8522V38H59.1442ZM87.7895 38.432C85.3655 38.432 83.2535 37.592 81.4535 35.912C79.6775 34.208 78.7895 31.952 78.7895 29.144C78.7895 26.384 79.6295 24.14 81.3095 22.412C82.9895 20.66 85.0055 19.784 87.3575 19.784C89.6615 19.784 91.6655 20.6 93.3695 22.232C95.0735 23.84 95.9255 26.348 95.9255 29.756V30.26H82.4615C82.6535 31.844 83.2895 33.08 84.3695 33.968C85.4735 34.832 86.7215 35.264 88.1135 35.264C88.8815 35.264 89.6495 35.132 90.4175 34.868C91.2095 34.58 91.9535 34.136 92.6495 33.536L94.8815 35.768C93.9935 36.632 92.9255 37.292 91.6775 37.748C90.4535 38.204 89.1575 38.432 87.7895 38.432ZM82.4975 27.596H92.1455C92.0495 26.396 91.5695 25.316 90.7055 24.356C89.8655 23.396 88.7855 22.916 87.4655 22.916C86.0735 22.916 84.9335 23.384 84.0455 24.32C83.1815 25.256 82.6655 26.348 82.4975 27.596ZM111.163 38V29.864H111.091C110.635 30.416 109.963 30.908 109.075 31.34C108.211 31.772 107.251 31.988 106.195 31.988C104.611 31.988 103.183 31.448 101.911 30.368C100.663 29.264 100.039 27.644 100.039 25.508V20.216H103.567V24.824C103.567 26.216 103.891 27.236 104.539 27.884C105.187 28.508 106.027 28.82 107.059 28.82C107.923 28.82 108.715 28.616 109.435 28.208C110.179 27.776 110.755 27.296 111.163 26.768V20.216H114.691V38H111.163ZM119.873 38V20.216H123.401V27.308H131.069V20.216H134.597V38H131.069V30.224H123.401V38H119.873ZM147.728 38.432C145.28 38.432 143.192 37.556 141.464 35.804C139.736 34.052 138.872 31.82 138.872 29.108C138.872 26.396 139.736 24.164 141.464 22.412C143.192 20.66 145.28 19.784 147.728 19.784C150.176 19.784 152.264 20.66 153.992 22.412C155.72 24.164 156.584 26.396 156.584 29.108C156.584 31.82 155.72 34.052 153.992 35.804C152.264 37.556 150.176 38.432 147.728 38.432ZM147.728 35.3C149.288 35.3 150.56 34.724 151.544 33.572C152.528 32.396 153.02 30.908 153.02 29.108C153.02 27.332 152.528 25.856 151.544 24.68C150.56 23.504 149.288 22.916 147.728 22.916C146.168 22.916 144.896 23.504 143.912 24.68C142.928 25.856 142.436 27.332 142.436 29.108C142.436 30.908 142.928 32.396 143.912 33.572C144.896 34.724 146.168 35.3 147.728 35.3ZM160.865 38V20.216H164.393V32.384H164.465L172.745 20.216H175.949V38H172.421V25.868H172.349L164.069 38H160.865ZM168.497 17.912C166.961 17.912 165.689 17.576 164.681 16.904C163.697 16.208 163.025 15.608 162.665 15.104L164.681 13.124C164.993 13.484 165.497 13.88 166.193 14.312C166.889 14.72 167.657 14.924 168.497 14.924C169.337 14.924 170.105 14.72 170.801 14.312C171.497 13.88 172.001 13.484 172.313 13.124L174.329 15.104C173.969 15.608 173.285 16.208 172.277 16.904C171.293 17.576 170.033 17.912 168.497 17.912ZM193.088 38V23.132H187.652V20.216H202.484L201.44 23.132H196.616V38H193.088ZM208.934 29.072C208.934 30.848 209.426 32.336 210.41 33.536C211.418 34.712 212.714 35.3 214.298 35.3C215.882 35.3 217.166 34.712 218.15 33.536C219.158 32.336 219.662 30.848 219.662 29.072C219.662 27.296 219.158 25.832 218.15 24.68C217.166 23.504 215.882 22.916 214.298 22.916C212.714 22.916 211.418 23.504 210.41 24.68C209.426 25.832 208.934 27.296 208.934 29.072ZM209.042 35.3V44.66H205.514V20.216H209.042V22.916H209.114C209.666 22.028 210.446 21.284 211.454 20.684C212.486 20.084 213.65 19.784 214.946 19.784C217.322 19.784 219.302 20.66 220.886 22.412C222.47 24.164 223.262 26.396 223.262 29.108C223.262 31.82 222.47 34.052 220.886 35.804C219.302 37.556 217.322 38.432 214.946 38.432C213.65 38.432 212.486 38.132 211.454 37.532C210.446 36.932 209.666 36.188 209.114 35.3H209.042ZM233.425 35.48C234.625 35.48 235.669 35.072 236.557 34.256C237.469 33.416 237.925 32.276 237.925 30.836V29.936C237.397 29.864 236.845 29.804 236.269 29.756C235.693 29.708 235.201 29.684 234.793 29.684C233.257 29.684 232.081 29.96 231.265 30.512C230.449 31.04 230.041 31.76 230.041 32.672C230.041 33.392 230.329 34.04 230.905 34.616C231.481 35.192 232.321 35.48 233.425 35.48ZM232.705 38.432C230.905 38.432 229.417 37.88 228.241 36.776C227.065 35.648 226.477 34.28 226.477 32.672C226.477 31.208 227.077 29.876 228.277 28.676C229.501 27.476 231.505 26.876 234.289 26.876C234.793 26.876 235.369 26.912 236.017 26.984C236.689 27.032 237.325 27.104 237.925 27.2V26.264C237.925 25.16 237.565 24.32 236.845 23.744C236.125 23.168 235.213 22.88 234.109 22.88C233.197 22.88 232.321 23.048 231.481 23.384C230.641 23.72 229.957 24.068 229.429 24.428L227.197 22.196C228.061 21.476 229.093 20.9 230.293 20.468C231.517 20.012 232.813 19.784 234.181 19.784C236.413 19.784 238.177 20.384 239.473 21.584C240.793 22.784 241.453 24.416 241.453 26.48V38H237.997V36.056H237.925C237.397 36.776 236.677 37.352 235.765 37.784C234.853 38.216 233.833 38.432 232.705 38.432ZM246.471 38V20.216H249.999V27.308H257.667V20.216H261.195V38H257.667V30.224H249.999V38H246.471ZM274.253 38.432C271.781 38.432 269.693 37.556 267.989 35.804C266.309 34.052 265.469 31.82 265.469 29.108C265.469 26.396 266.309 24.164 267.989 22.412C269.693 20.66 271.781 19.784 274.253 19.784C275.621 19.784 276.833 20.036 277.889 20.54C278.969 21.02 279.845 21.596 280.517 22.268L278.321 24.464C277.913 24.08 277.373 23.72 276.701 23.384C276.053 23.048 275.261 22.88 274.325 22.88C272.741 22.88 271.457 23.48 270.473 24.68C269.489 25.88 268.997 27.356 268.997 29.108C268.997 30.884 269.489 32.372 270.473 33.572C271.457 34.772 272.741 35.372 274.325 35.372C275.261 35.372 276.053 35.204 276.701 34.868C277.373 34.508 277.913 34.136 278.321 33.752L280.517 35.948C279.845 36.62 278.969 37.208 277.889 37.712C276.833 38.192 275.621 38.432 274.253 38.432ZM284.158 38V20.216H298.522V38H294.994V23.132H287.686V38H284.158ZM311.661 38.432C309.213 38.432 307.125 37.556 305.397 35.804C303.669 34.052 302.805 31.82 302.805 29.108C302.805 26.396 303.669 24.164 305.397 22.412C307.125 20.66 309.213 19.784 311.661 19.784C314.109 19.784 316.197 20.66 317.925 22.412C319.653 24.164 320.517 26.396 320.517 29.108C320.517 31.82 319.653 34.052 317.925 35.804C316.197 37.556 314.109 38.432 311.661 38.432ZM311.661 35.3C313.221 35.3 314.493 34.724 315.477 33.572C316.461 32.396 316.953 30.908 316.953 29.108C316.953 27.332 316.461 25.856 315.477 24.68C314.493 23.504 313.221 22.916 311.661 22.916C310.101 22.916 308.829 23.504 307.845 24.68C306.861 25.856 306.369 27.332 306.369 29.108C306.369 30.908 306.861 32.396 307.845 33.572C308.829 34.724 310.101 35.3 311.661 35.3ZM328.219 29.072C328.219 30.848 328.711 32.336 329.695 33.536C330.703 34.712 331.999 35.3 333.583 35.3C335.167 35.3 336.451 34.712 337.435 33.536C338.443 32.336 338.947 30.848 338.947 29.072C338.947 27.296 338.443 25.832 337.435 24.68C336.451 23.504 335.167 22.916 333.583 22.916C331.999 22.916 330.703 23.504 329.695 24.68C328.711 25.832 328.219 27.296 328.219 29.072ZM328.327 35.3V44.66H324.799V20.216H328.327V22.916H328.399C328.951 22.028 329.731 21.284 330.739 20.684C331.771 20.084 332.935 19.784 334.231 19.784C336.607 19.784 338.587 20.66 340.171 22.412C341.755 24.164 342.547 26.396 342.547 29.108C342.547 31.82 341.755 34.052 340.171 35.804C338.587 37.556 336.607 38.432 334.231 38.432C332.935 38.432 331.771 38.132 330.739 37.532C329.731 36.932 328.951 36.188 328.399 35.3H328.327ZM350.306 38V23.132H344.87V20.216H359.702L358.658 23.132H353.834V38H350.306ZM373.59 38H369.522L377.55 12.8H380.826L387.09 31.916H387.162L393.39 12.8H396.666L404.694 38H400.626L394.938 19.532H394.866L388.818 38H385.398L379.35 19.532H379.278L373.59 38ZM415.407 38.432C412.959 38.432 410.871 37.556 409.143 35.804C407.415 34.052 406.551 31.82 406.551 29.108C406.551 26.396 407.415 24.164 409.143 22.412C410.871 20.66 412.959 19.784 415.407 19.784C417.855 19.784 419.943 20.66 421.671 22.412C423.399 24.164 424.263 26.396 424.263 29.108C424.263 31.82 423.399 34.052 421.671 35.804C419.943 37.556 417.855 38.432 415.407 38.432ZM415.407 35.3C416.967 35.3 418.239 34.724 419.223 33.572C420.207 32.396 420.699 30.908 420.699 29.108C420.699 27.332 420.207 25.856 419.223 24.68C418.239 23.504 416.967 22.916 415.407 22.916C413.847 22.916 412.575 23.504 411.591 24.68C410.607 25.856 410.115 27.332 410.115 29.108C410.115 30.908 410.607 32.396 411.591 33.572C412.575 34.724 413.847 35.3 415.407 35.3ZM436.429 38.432C433.957 38.432 431.869 37.556 430.165 35.804C428.485 34.052 427.645 31.82 427.645 29.108C427.645 26.396 428.485 24.164 430.165 22.412C431.869 20.66 433.957 19.784 436.429 19.784C437.797 19.784 439.009 20.036 440.065 20.54C441.145 21.02 442.021 21.596 442.693 22.268L440.497 24.464C440.089 24.08 439.549 23.72 438.877 23.384C438.229 23.048 437.437 22.88 436.501 22.88C434.917 22.88 433.633 23.48 432.649 24.68C431.665 25.88 431.173 27.356 431.173 29.108C431.173 30.884 431.665 32.372 432.649 33.572C433.633 34.772 434.917 35.372 436.501 35.372C437.437 35.372 438.229 35.204 438.877 34.868C439.549 34.508 440.089 34.136 440.497 33.752L442.693 35.948C442.021 36.62 441.145 37.208 440.065 37.712C439.009 38.192 437.797 38.432 436.429 38.432ZM446.334 38V20.216H449.862V27.452H452.742L457.566 20.216H461.526L455.838 28.532L462.642 38H458.286L452.994 30.368H449.862V38H446.334ZM473.086 38H465.67V20.216H473.23C474.886 20.216 476.194 20.66 477.154 21.548C478.114 22.436 478.594 23.492 478.594 24.716C478.594 25.532 478.378 26.288 477.946 26.984C477.538 27.656 476.962 28.172 476.218 28.532V28.604C477.226 28.916 478.018 29.456 478.594 30.224C479.194 30.992 479.494 31.832 479.494 32.744C479.494 34.376 478.87 35.66 477.622 36.596C476.374 37.532 474.862 38 473.086 38ZM469.234 27.38H472.474C473.146 27.38 473.746 27.188 474.274 26.804C474.802 26.396 475.066 25.856 475.066 25.184C475.066 24.512 474.802 23.984 474.274 23.6C473.746 23.216 473.146 23.024 472.474 23.024H469.234V27.38ZM469.234 35.192H472.51C473.47 35.192 474.262 34.988 474.886 34.58C475.51 34.148 475.822 33.524 475.822 32.708C475.822 31.892 475.51 31.28 474.886 30.872C474.262 30.44 473.47 30.224 472.51 30.224H469.234V35.192ZM499.397 38V20.216H502.925V38H499.397ZM483.881 38V20.216H487.409V26.048H490.757C492.509 26.048 494.009 26.6 495.257 27.704C496.529 28.784 497.165 30.224 497.165 32.024C497.165 33.824 496.529 35.276 495.257 36.38C494.009 37.46 492.509 38 490.757 38H483.881ZM487.409 35.084H490.289C491.177 35.084 491.945 34.832 492.593 34.328C493.241 33.8 493.565 33.032 493.565 32.024C493.565 31.016 493.241 30.26 492.593 29.756C491.945 29.228 491.177 28.964 490.289 28.964H487.409V35.084Z" fill="white"/>
<defs>
<clipPath id="clip0_4_3">
<rect width="39.6522" height="48" fill="white"/>
</clipPath>
</defs>
</svg>
