<svg width="16" height="16" viewBox="0 0 16 16" fill="none" xmlns="http://www.w3.org/2000/svg">
<path fill-rule="evenodd" clip-rule="evenodd" d="M11.652 7.824L8.754 6.208C8.52243 6.07883 8.26167 6.01102 7.9965 6.01102C7.73134 6.01102 7.47058 6.07883 7.239 6.208L4.349 7.822L4.761 5.246C4.77194 5.17746 4.80693 5.11505 4.85971 5.06997C4.91249 5.02489 4.97959 5.00008 5.049 5H10.951C11.095 5 11.217 5.104 11.239 5.246L11.652 7.824ZM9.1 4L8.837 2.248C8.82653 2.17926 8.79187 2.11652 8.73925 2.07105C8.68664 2.02559 8.61954 2.0004 8.55 2H7.45C7.3803 2.00016 7.31295 2.02525 7.26013 2.07073C7.20731 2.11621 7.17251 2.17909 7.162 2.248L6.9 4H9.1ZM2.793 9.761L7.743 7.071C7.82838 7.02479 7.92393 7.00059 8.021 7.00059C8.11808 7.00059 8.21363 7.02479 8.299 7.071L13.207 9.735C13.3346 9.80211 13.4306 9.91679 13.4742 10.0542C13.5178 10.1916 13.5055 10.3406 13.44 10.469L12.14 12.999C11.797 13.666 11.111 14 10.082 14C8.538 14 7.509 12.998 5.966 12.998C5.493 12.998 5.093 13.068 4.765 13.21C4.63755 13.2655 4.50026 13.2949 4.36125 13.2964C4.22223 13.298 4.08433 13.2716 3.95567 13.219C3.82702 13.1663 3.71023 13.0884 3.61221 12.9898C3.51419 12.8912 3.43693 12.774 3.385 12.645L2.536 10.441C2.48849 10.3159 2.48828 10.1778 2.53542 10.0526C2.58256 9.92738 2.6748 9.82368 2.793 9.761ZM9.5 10.7C9.68566 10.7 9.8637 10.6263 9.99498 10.495C10.1263 10.3637 10.2 10.1857 10.2 10C10.2 9.81435 10.1263 9.6363 9.99498 9.50502C9.8637 9.37375 9.68566 9.3 9.5 9.3C9.31435 9.3 9.1363 9.37375 9.00503 9.50502C8.87375 9.6363 8.8 9.81435 8.8 10C8.8 10.1857 8.87375 10.3637 9.00503 10.495C9.1363 10.6263 9.31435 10.7 9.5 10.7ZM6.5 10.7C6.68566 10.7 6.8637 10.6263 6.99498 10.495C7.12625 10.3637 7.2 10.1857 7.2 10C7.2 9.81435 7.12625 9.6363 6.99498 9.50502C6.8637 9.37375 6.68566 9.3 6.5 9.3C6.31435 9.3 6.13631 9.37375 6.00503 9.50502C5.87375 9.6363 5.8 9.81435 5.8 10C5.8 10.1857 5.87375 10.3637 6.00503 10.495C6.13631 10.6263 6.31435 10.7 6.5 10.7Z" fill="white"/>
</svg>
