<svg width="14" height="14" viewBox="0 0 14 14" fill="none" xmlns="http://www.w3.org/2000/svg">
<path fill-rule="evenodd" clip-rule="evenodd" d="M7.966 11.45C9.242 11.313 10.351 10.877 11.16 9.99099L10.677 9.26699C10.6598 9.2411 10.65 9.21105 10.6486 9.18003C10.6471 9.149 10.6541 9.11817 10.6688 9.09079C10.6834 9.06341 10.7052 9.04051 10.7319 9.02453C10.7585 9.00854 10.7889 9.00006 10.82 8.99999H12.076C12.391 8.99999 12.596 9.31299 12.454 9.57899C11.257 11.843 9.422 13 7 13C4.577 13 2.742 11.843 1.545 9.57899C1.405 9.31299 1.609 8.99999 1.923 8.99999H3.18C3.21106 9.00006 3.24152 9.00854 3.26815 9.02453C3.29478 9.04051 3.31658 9.06341 3.33124 9.09079C3.34591 9.11817 3.35288 9.149 3.35143 9.18003C3.34998 9.21105 3.34016 9.2411 3.323 9.26699L2.84 9.99099C3.65 10.877 4.76 11.313 6.035 11.451L6.263 7.80299L4.649 7.37299C4.60637 7.36175 4.56864 7.33673 4.54169 7.30183C4.51475 7.26692 4.50009 7.22409 4.5 7.17999V6.81999C4.50003 6.77603 4.51454 6.7333 4.5413 6.69841C4.56805 6.66353 4.60555 6.63842 4.648 6.62699L6.364 6.16899L6.442 4.92099C5.97952 4.78663 5.58105 4.48988 5.31981 4.08528C5.05857 3.68068 4.9521 3.1954 5.01996 2.7186C5.08782 2.2418 5.32546 1.80549 5.68921 1.48985C6.05296 1.1742 6.51839 1.00041 7 1.00041C7.48161 1.00041 7.94705 1.1742 8.3108 1.48985C8.67455 1.80549 8.91219 2.2418 8.98005 2.7186C9.04791 3.1954 8.94144 3.68068 8.6802 4.08528C8.41896 4.48988 8.02049 4.78663 7.558 4.92099L7.636 6.16899L9.352 6.62699C9.39446 6.63842 9.43196 6.66353 9.45871 6.69841C9.48546 6.7333 9.49998 6.77603 9.5 6.81999V7.17999C9.49998 7.22396 9.48546 7.26669 9.45871 7.30158C9.43196 7.33646 9.39446 7.36156 9.352 7.37299L7.738 7.80299L7.966 11.451V11.45ZM7 3.99999C7.26522 3.99999 7.51957 3.89464 7.70711 3.7071C7.89465 3.51956 8 3.26521 8 2.99999C8 2.73478 7.89465 2.48042 7.70711 2.29289C7.51957 2.10535 7.26522 1.99999 7 1.99999C6.73479 1.99999 6.48043 2.10535 6.2929 2.29289C6.10536 2.48042 6 2.73478 6 2.99999C6 3.26521 6.10536 3.51956 6.2929 3.7071C6.48043 3.89464 6.73479 3.99999 7 3.99999Z" fill="white"/>
</svg>
